<svg id="Capa_1" enable-background="new 0 0 510.001 510.001" height="512" viewBox="0 0 510.001 510.001" width="512" xmlns="http://www.w3.org/2000/svg"><path d="m501.999 207.001c0-20.671-13.42-38.255-32-44.531v-70.938c18.58-6.276 32-23.86 32-44.531 0-25.916-21.084-47-47-47-31.373 0-54.186 30.42-44.964 60.679l-39.531 28.245c-15.687-11.364-36.262-11.723-52.102-1.953l-56.403-46.997c0-12.756 1.796-21.761-6.686-27.416-39.048-26.986-93.062-8.475-107.791 36.384-32.684 5.337-57.935 33.058-59.442 66.862-32.078 10.958-53.062 43.997-47.062 79.176-43.993 27.65-44.051 92.364.002 120.049-5.998 35.234 15.026 68.225 47.061 79.168 1.507 33.804 26.758 61.525 59.442 66.862 14.739 44.888 68.763 63.356 107.791 36.384 3.737-2.492 6.211-6.601 6.617-11.116.107-1.161.069 8.068.069-168.326h36.469c4.684 13.866 15.665 24.848 29.531 29.531v70.938c-18.58 6.276-32 23.86-32 44.531 0 25.916 21.084 47 47 47 31.373 0 54.186-30.42 44.964-60.679l39.531-28.245c30.779 22.296 74.505.357 74.505-38.076 0-38.457-43.751-60.354-74.505-38.076l-39.531-28.245c3.087-10.129 2.699-21.173-1.393-31.271l44.387-38.043c31.078 18.579 71.041-3.862 71.041-40.366zm-270-57.674c-15.278-13.278-35.217-21.326-57-21.326-8.284 0-15 6.716-15 15s6.716 15 15 15c31.43 0 57 25.57 57 57v10.363c-9.604-5.931-20.907-9.363-33-9.363-8.284 0-15 6.716-15 15s6.716 15 15 15c18.196 0 33 14.804 33 33s-14.804 33-33 33c-8.284 0-15 6.716-15 15s6.716 15 15 15c12.093 0 23.396-3.432 33-9.363v143.682c-24.941 11.391-53.774-4.744-57.58-31.445-1.061-7.507-7.673-13.172-15.391-12.874-24.345 0-44.319-21.392-40.546-47.362 1.16-8.371-4.717-15.844-12.747-16.964-21.653-3.093-35.736-21.103-35.736-40.674 0-12.633 4.74-14.861 3.371-22.468-.948-5.266-4.587-9.493-9.29-11.333-33.906-13.253-35.723-61.776.244-76.504 7.452-3.071 11.228-11.528 8.318-19.202-9.343-24.587 6.871-51.72 32.947-55.141 8.411-1.121 14.132-8.92 12.88-17.121-3.775-24.941 15.536-47.232 40.53-47.232 8.483 0 14.048-5.646 15.29-12.189 5.922-31.005 35.125-42.446 57.71-32.13zm223 216.674c9.374 0 17 7.626 17 17s-7.626 17-17 17-17-7.626-17-17 7.626-17 17-17zm17-159c0 9.374-7.626 17-17 17s-17-7.626-17-17 7.626-17 17-17 17 7.626 17 17zm-17-177c9.374 0 17 7.626 17 17s-7.626 17-17 17-17-7.626-17-17 7.626-17 17-17zm-112 80c9.374 0 17 7.626 17 17s-7.626 17-17 17-17-7.626-17-17 7.626-17 17-17zm-44.531 178h-36.469v-208.977l37.19 30.988c-9.695 24.912 3.449 52.953 28.81 61.519v86.937c-13.866 4.685-24.847 15.667-29.531 29.533zm27.531 15c0-9.374 7.626-17 17-17s17 7.626 17 17-7.626 17-17 17-17-7.626-17-17zm17 177c-9.374 0-17-7.626-17-17s7.626-17 17-17 17 7.626 17 17-7.626 17-17 17zm67.037-110.679c-2.672 8.767-2.758 18.307 0 27.357l-39.531 28.245c-3.785-2.742-7.992-4.931-12.505-6.455v-70.938c4.513-1.524 8.72-3.713 12.505-6.455zm1.392-144.73-44.387 38.043c-2.835-1.695-5.864-3.093-9.042-4.166v-86.937c23.833-8.05 37.434-33.701 29.964-58.21l39.531-28.245c3.785 2.742 7.992 4.931 12.505 6.455v70.938c-25.636 8.658-38.691 37.148-28.571 62.122z"/></svg>