<svg id="_001-api" data-name="001-api" xmlns="http://www.w3.org/2000/svg" width="100.136" height="85.288" viewBox="0 0 100.136 85.288">
  <path id="Path_7" data-name="Path 7" d="M94.47,107.794V60.671a6.616,6.616,0,0,0-6.608-6.608H80.416V45.5a7.547,7.547,0,0,0-7.539-7.539H27.259A7.547,7.547,0,0,0,19.72,45.5v8.567H12.274a6.616,6.616,0,0,0-6.608,6.608v47.124A6.12,6.12,0,0,0,0,113.89v7.4a1.956,1.956,0,0,0,1.956,1.956H98.18a1.956,1.956,0,0,0,1.956-1.956v-7.4A6.12,6.12,0,0,0,94.47,107.794ZM9.577,101.57H90.558v6.207H9.577Zm48.905,10.118-.088.493a1.792,1.792,0,0,1-1.766,1.479H43.507a1.792,1.792,0,0,1-1.766-1.479l-.088-.493ZM23.631,45.5a3.631,3.631,0,0,1,3.627-3.627H72.877A3.631,3.631,0,0,1,76.5,45.5v2.271H23.631ZM12.274,57.974H19.72V81.818a7.547,7.547,0,0,0,7.539,7.539H53a1.956,1.956,0,1,0,0-3.912H27.259a3.631,3.631,0,0,1-3.627-3.627V51.678H76.5v30.14a3.631,3.631,0,0,1-3.627,3.627H68.641a1.956,1.956,0,1,0,0,3.912h4.236a7.547,7.547,0,0,0,7.539-7.539V57.974h7.446a2.7,2.7,0,0,1,2.7,2.7V97.658H9.577V60.671a2.7,2.7,0,0,1,2.7-2.7Zm83.95,61.36H3.912V113.89a2.2,2.2,0,0,1,2.2-2.2H37.68l.211,1.18a5.7,5.7,0,0,0,5.617,4.7H56.628a5.7,5.7,0,0,0,5.617-4.7l.211-1.18H94.022a2.2,2.2,0,0,1,2.2,2.2v5.444Z" transform="translate(0 -37.957)"/>
  <path id="Path_8" data-name="Path 8" d="M237.434,372.993h4.116a1.956,1.956,0,0,0,0-3.912h-4.116a1.956,1.956,0,0,0,0,3.912Z" transform="translate(-189.424 -301.167)"/>
  <path id="Path_9" data-name="Path 9" d="M169.405,141.342c-.449-1.573-4.023-1.526-4.47-.117l-5.172,16.837a1.843,1.843,0,0,0-.054.286c0,1.443,3.389,2.176,3.793.851l1-3.563h5.736l1.017,3.56c.364,1.357,3.373.525,3.373-.75a1.629,1.629,0,0,0-.054-.268Zm-4.141,11.564,2.3-8.218,2.329,8.218Z" transform="translate(-128.474 -117.022)"/>
  <path id="Path_10" data-name="Path 10" d="M260.276,147.166v-.161c0-4.035-2.289-6.023-6.077-6.023h-5.381a1.178,1.178,0,0,0-1.312,1.071v17.4c0,1.483,3.48,1.439,3.48,0v-6.211c2.055-.157,5.156.581,7.563-1.472A5.727,5.727,0,0,0,260.276,147.166Zm-4.216,2.57c-1.114,1.175-2.714.643-5.073.776v-6.478h3c1.751,0,2.811,1.009,2.811,3.079A3.806,3.806,0,0,1,256.06,149.736Z" transform="translate(-199.1 -117.679)"/>
  <path id="Path_11" data-name="Path 11" d="M327.227,159.447v-17.4a.861.861,0,0,0-.509-.8c-.955-.5-2.971-.339-2.971.8v17.4C323.747,160.93,327.227,160.886,327.227,159.447Z" transform="translate(-260.429 -117.672)"/>
  <path id="Path_12" data-name="Path 12" d="M344.281,63.036h-3.325a1.956,1.956,0,0,0,0,3.912h3.325a1.956,1.956,0,0,0,0-3.912Z" transform="translate(-272.699 -54.977)"/>
  <path id="Path_13" data-name="Path 13" d="M302.933,280.77a1.956,1.956,0,1,0,1.961,1.956,1.954,1.954,0,0,0-1.961-1.956Z" transform="translate(-242.115 -230.127)"/>
</svg>
