<svg id="_002-handshake" data-name="002-handshake" xmlns="http://www.w3.org/2000/svg" width="100.924" height="108.173" viewBox="0 0 100.924 108.173">
  <g id="Group_5" data-name="Group 5" transform="translate(0 0)">
    <path id="Path_14" data-name="Path 14" d="M107.631,27.327c-.023-.035-.028-.077-.054-.111s-.049-.037-.07-.061a50.419,50.419,0,0,0-6.833-7.332h6.318a1.8,1.8,0,0,0,1.8-1.8V9.01A9.02,9.02,0,0,0,99.785,0H47.525a9.021,9.021,0,0,0-9.01,9.01v7.273A50.617,50.617,0,0,0,27.183,27.159c-.019.023-.047.033-.065.056s-.023.058-.042.085a50.461,50.461,0,1,0,80.555.026ZM94.379,9.01a5.406,5.406,0,0,1,10.812,0v7.208H94.378V9.01Zm0,10.812h.549a46.724,46.724,0,0,1,8.645,8.186l-9.195,7.03ZM91.4,41.852l3.412-2.609,16.239,24.838-3.5,1.992Zm9.669,20.991-3.5,3.5a6.325,6.325,0,0,0-.607-.519L79.136,54.349a1.676,1.676,0,0,0-.257-.1l-5.3-3.37a1.813,1.813,0,0,0-1.858-.047,14.441,14.441,0,0,1-8.433,1.485,1.515,1.515,0,0,1-1.323-1.271,1.621,1.621,0,0,1,.844-1.739,20.585,20.585,0,0,0,3.782-2.533,1.222,1.222,0,0,0,.3-.377,1.216,1.216,0,0,1,.19-.2c.529-.451,2.706-1.826,8.634-.727l7.141,3.041a1.8,1.8,0,0,0,1.179.081l6.373-1.736ZM42.119,9.01A5.412,5.412,0,0,1,47.525,3.6h45.1A8.922,8.922,0,0,0,90.774,9.01V37.794L89.2,39a3.628,3.628,0,0,0-.875,4.69L83.7,44.95l-6.745-2.872a1.776,1.776,0,0,0-.366-.112c-6.464-1.242-9.82-.047-11.561,1.283H46.605a3.645,3.645,0,0,0-1.121-4.26l-3.365-2.573V9.01ZM39.88,39.246l3.407,2.606L27.137,66.085l-3.5-2ZM38.515,20.755V33.66L31.105,28A46.986,46.986,0,0,1,38.515,20.755Zm-18.02,36.91a46.768,46.768,0,0,1,8.427-26.8l8.088,6.188-16.3,24.923C20.583,60.548,20.494,59.114,20.494,57.666ZM38.515,94.576a46.8,46.8,0,0,1-17.073-27.6l3.914,2.237a3.583,3.583,0,0,0,1.769.465A3.621,3.621,0,0,0,29.6,68.7l2.089,1.668a5.369,5.369,0,0,0,5.065,8.61,6.251,6.251,0,0,0,1.456,3.485c.094.111.208.2.308.3Zm-3.8-22.2h0L39.217,68.9a1.75,1.75,0,0,1,1.136-.418c.049,0,.1,0,.149.006a1.765,1.765,0,0,1,1.611,1.9,1.723,1.723,0,0,1-.556,1.149l-4.5,3.484A1.765,1.765,0,0,1,34.71,72.38Zm6.247,7.756a2.681,2.681,0,0,1-.631-1.97,2.652,2.652,0,0,1,.883-1.789l5.677-4.39a2.7,2.7,0,0,1,3.595,4.036L49.115,77.09l-4.348,3.362a2.652,2.652,0,0,1-1.97.631A2.683,2.683,0,0,1,40.957,80.136Zm15.96-.814a1.726,1.726,0,0,1-.562,1.154l-3.792,2.961-.517.4-.012.013-2.442,1.907a1.764,1.764,0,0,1-2.9-1.492,1.726,1.726,0,0,1,.562-1.154l4.132-3.226,1.321-1.022c.015-.012.025-.028.039-.041l1.271-.992a1.8,1.8,0,0,1,1.286-.412,1.763,1.763,0,0,1,1.612,1.9Zm1.97,3.772a1.765,1.765,0,1,1,2.34,2.641l-4.574,3.543a1.764,1.764,0,1,1-2.346-2.634l.477-.372ZM90.774,98.221a46.708,46.708,0,0,1-48.655-1.1h0V84.606c.128.018.249.058.379.069.179.015.357.023.535.023.027,0,.052-.007.079-.007a5.309,5.309,0,0,0,1.242,3.19h0a5.39,5.39,0,0,0,4.119,1.9,5.31,5.31,0,0,0,1.852-.337,5.267,5.267,0,0,0,1.048,1.993h0a5.368,5.368,0,0,0,4.107,1.891,5.313,5.313,0,0,0,3.442-1.252L61.7,89.931l6.659,4.451a6.3,6.3,0,0,0,9.76-4.616A6.231,6.231,0,0,0,86.13,84.3a6.224,6.224,0,0,0,1.927.313,6.387,6.387,0,0,0,1.254-.125,6.309,6.309,0,0,0,1.463-.508V98.221Zm1.233-24.841h0l-.024-.016L80.158,65.19a1.8,1.8,0,0,0-2.05,2.965L89.571,76.08A2.694,2.694,0,0,1,86.6,80.574L74.754,72.4a1.8,1.8,0,0,0-2.047,2.967l8.651,5.97a2.867,2.867,0,0,1,.777,3.874,2.7,2.7,0,0,1-3.7.782l-6.437-4.569a1.8,1.8,0,0,0-2.085,2.939l3.326,2.361a4.45,4.45,0,0,1,.474.429,2.71,2.71,0,0,1-3.36,4.225L64.455,87.44A5.327,5.327,0,0,0,60.5,79.06a5.309,5.309,0,0,0-1.245-3.352,5.368,5.368,0,0,0-4.348-1.88A6.259,6.259,0,0,0,45.47,68.6,5.381,5.381,0,0,0,40.8,64.892a5.276,5.276,0,0,0-3.849,1.2L34.489,68l-2.806-2.241,12.6-18.9H60.1a5.187,5.187,0,0,0,2.6,9.02,17.684,17.684,0,0,0,9.8-1.411l4.595,2.922a1.751,1.751,0,0,0,.327.147L94.984,68.841a2.954,2.954,0,0,1,.858.914l.028.059a2.72,2.72,0,0,1-3.862,3.566Zm2.371,22.552V77.29a6.2,6.2,0,0,0,4.344-2.69,6.319,6.319,0,0,0,.832-5.145l3.554-3.554,1.443,2.164a3.622,3.622,0,0,0,4.8,1.149l3.935-2.249A46.466,46.466,0,0,1,94.379,95.932Zm3.306-58.885,8.067-6.168a46.862,46.862,0,0,1,8.45,26.785c0,1.452-.089,2.887-.217,4.312Z" transform="translate(-16.882)"/>
  </g>
</svg>
