<svg id="_003-secure" data-name="003-secure" xmlns="http://www.w3.org/2000/svg" width="100.924" height="100.924" viewBox="0 0 100.924 100.924">
  <path id="Path_15" data-name="Path 15" d="M89.36,92.514H81.748a3.154,3.154,0,1,1,0-6.308H89.36a5.264,5.264,0,0,0,5.256-5.256V11.564A5.264,5.264,0,0,0,89.36,6.308h-77.8a5.264,5.264,0,0,0-5.256,5.256V80.949a5.264,5.264,0,0,0,5.256,5.256h7.611a3.154,3.154,0,1,1,0,6.308H11.564A11.574,11.574,0,0,1,0,80.949V11.564A11.574,11.574,0,0,1,11.564,0h77.8a11.574,11.574,0,0,1,11.564,11.564V80.949A11.574,11.574,0,0,1,89.36,92.514Z"/>
  <path id="Path_16" data-name="Path 16" d="M97.77,9.808H3.154a3.154,3.154,0,1,1,0-6.308H97.77a3.154,3.154,0,1,1,0,6.308Z" transform="translate(0 11.218)"/>
  <path id="Path_17" data-name="Path 17" d="M31.231,68.874A3.136,3.136,0,0,1,30,68.622c-.98-.416-24-10.437-24-31.059v-16.9A3.153,3.153,0,0,1,8.14,17.68l22.077-7.51a3.1,3.1,0,0,1,2.027,0l22.077,7.51a3.145,3.145,0,0,1,2.14,2.986v16.9c0,20.622-23.019,30.647-24,31.064a3.208,3.208,0,0,1-1.232.248ZM12.308,22.924V37.562c0,14.079,14.529,22.46,18.919,24.668,4.382-2.22,18.927-10.643,18.927-24.668V22.924L31.231,16.486Z" transform="translate(19.231 32.05)"/>
  <path id="Path_18" data-name="Path 18" d="M20.563,37.129a3.148,3.148,0,0,1-2.229-.925l-8.41-8.41a3.155,3.155,0,0,1,4.462-4.462l5.841,5.841L30.656,15.262A3.152,3.152,0,1,1,35.7,19.047L23.082,35.867a3.136,3.136,0,0,1-2.3,1.253,1.864,1.864,0,0,1-.219.008Z" transform="translate(28.847 44.872)"/>
</svg>
