<svg xmlns="http://www.w3.org/2000/svg" width="640.333" height="247.939" viewBox="0 0 640.333 247.939">
  <g id="dots-bottom" opacity="0.07">
    <path id="Path_2" data-name="Path 2" d="M.058,0,.125.058.058.123,0,.058Z" transform="translate(0.856 247.758)"/>
    <path id="Path_3" data-name="Path 3" d="M.066,0,.123.058.066.123,0,.091Z" transform="translate(22.844 247.758)"/>
    <path id="Path_4" data-name="Path 4" d="M.058,0,.123.058.058.123,0,.091Z" transform="translate(44.84 247.758)"/>
    <path id="Path_5" data-name="Path 5" d="M.066,0,.123.058.066.123,0,.091Z" transform="translate(66.827 247.758)"/>
    <path id="Path_6" data-name="Path 6" d="M.058,0,.123.058.058.123,0,.058Z" transform="translate(88.823 247.758)"/>
    <path id="Path_7" data-name="Path 7" d="M.125,0,.247.123.125.247,0,.189Z" transform="translate(110.753 247.692)"/>
    <path id="Path_8" data-name="Path 8" d="M.115,0,.239.123.115.247,0,.123Z" transform="translate(132.749 247.692)"/>
    <path id="Path_9" data-name="Path 9" d="M.123,0,.247.123.123.247,0,.123Z" transform="translate(154.737 247.692)"/>
    <path id="Path_10" data-name="Path 10" d="M.122,0,.237.123.122.247,0,.189Z" transform="translate(176.734 247.692)"/>
    <path id="Path_11" data-name="Path 11" d="M.123,0,.247.123.123.247,0,.189Z" transform="translate(198.72 247.692)"/>
    <path id="Path_12" data-name="Path 12" d="M.123,0,.239.123.123.247,0,.189Z" transform="translate(220.716 247.692)"/>
    <path id="Path_13" data-name="Path 13" d="M.123,0,.247.123.123.247,0,.189Z" transform="translate(242.704 247.692)"/>
    <path id="Path_14" data-name="Path 14" d="M.123,0,.239.123.123.247,0,.189Z" transform="translate(264.7 247.692)"/>
    <path id="Path_15" data-name="Path 15" d="M.123,0,.247.123.123.247,0,.123Z" transform="translate(286.687 247.692)"/>
    <path id="Path_16" data-name="Path 16" d="M.123,0,.247.123.123.247,0,.189Z" transform="translate(308.683 247.692)"/>
    <path id="Path_17" data-name="Path 17" d="M.058,0,.123.058.058.123,0,.091Z" transform="translate(330.737 247.758)"/>
    <path id="Path_18" data-name="Path 18" d="M.066,0,.123.058.066.123,0,.091Z" transform="translate(352.724 247.758)"/>
    <path id="Path_19" data-name="Path 19" d="M.058,0,.123.058.058.123,0,.058Z" transform="translate(374.72 247.758)"/>
    <path id="Path_20" data-name="Path 20" d="M.067,0,.123.058.067.123,0,.058Z" transform="translate(396.708 247.758)"/>
    <path id="Path_21" data-name="Path 21" d="M.058,0,.123.058.058.123,0,.058Z" transform="translate(418.704 247.758)"/>
    <path id="Path_22" data-name="Path 22" d="M.123,0,.247.123.123.247,0,.123Z" transform="translate(440.634 247.692)"/>
    <path id="Path_23" data-name="Path 23" d="M.114,0,.237.123.114.247,0,.189Z" transform="translate(462.631 247.692)"/>
    <path id="Path_24" data-name="Path 24" d="M.124,0,.247.123.124.247,0,.189Z" transform="translate(484.617 247.692)"/>
    <path id="Path_25" data-name="Path 25" d="M.123,0,.239.123.123.247,0,.189Z" transform="translate(506.613 247.692)"/>
    <path id="Path_26" data-name="Path 26" d="M.124,0,.247.123.124.247,0,.189Z" transform="translate(528.601 247.692)"/>
    <path id="Path_27" data-name="Path 27" d="M.123,0,.239.123.123.247,0,.189Z" transform="translate(550.596 247.692)"/>
    <path id="Path_28" data-name="Path 28" d="M.124,0,.247.123.124.247,0,.123Z" transform="translate(572.584 247.692)"/>
    <path id="Path_29" data-name="Path 29" d="M.123,0,.247.123.123.247,0,.189Z" transform="translate(594.58 247.692)"/>
    <path id="Path_30" data-name="Path 30" d="M.122,0,.247.123.122.247,0,.189Z" transform="translate(616.569 247.692)"/>
    <path id="Path_31" data-name="Path 31" d="M.066,0,.124.058.066.123,0,.091Z" transform="translate(638.621 247.758)"/>
    <path id="Path_32" data-name="Path 32" d="M.058,0,.125.025.058.115,0,.058Z" transform="translate(0.856 225.771)"/>
    <path id="Path_33" data-name="Path 33" d="M.066,0,.123.058.1.115,0,.091Z" transform="translate(22.844 225.771)"/>
    <path id="Path_34" data-name="Path 34" d="M.122,0,.247.066.188.247,0,.189Z" transform="translate(44.775 225.705)"/>
    <ellipse id="Ellipse_1" data-name="Ellipse 1" cx="0.181" cy="0.181" rx="0.181" ry="0.181" transform="translate(66.712 225.647)"/>
    <path id="Path_35" data-name="Path 35" d="M.181,0,.37.181.181.362,0,.181Z" transform="translate(88.7 225.647)"/>
    <path id="Path_36" data-name="Path 36" d="M.247,0,.494.247.247.486,0,.247Z" transform="translate(110.631 225.581)"/>
    <path id="Path_37" data-name="Path 37" d="M.239,0,.486.247.239.486,0,.247Z" transform="translate(132.626 225.581)"/>
    <path id="Path_38" data-name="Path 38" d="M.3,0,.61.3.3.617,0,.3Z" transform="translate(154.556 225.524)"/>
    <path id="Path_39" data-name="Path 39" d="M.247,0,.486.247.247.486,0,.247Z" transform="translate(176.609 225.581)"/>
    <path id="Path_40" data-name="Path 40" d="M.247,0,.494.247.247.486,0,.247Z" transform="translate(198.597 225.581)"/>
    <path id="Path_41" data-name="Path 41" d="M.247,0,.486.247.247.486,0,.247Z" transform="translate(220.593 225.581)"/>
    <path id="Path_42" data-name="Path 42" d="M.247,0,.494.247.247.486,0,.247Z" transform="translate(242.58 225.581)"/>
    <path id="Path_43" data-name="Path 43" d="M.247,0l.24.247L.247.486,0,.247Z" transform="translate(264.576 225.581)"/>
    <path id="Path_44" data-name="Path 44" d="M.239,0,.486.247.239.486,0,.247Z" transform="translate(286.572 225.581)"/>
    <path id="Path_45" data-name="Path 45" d="M.189,0,.371.181.189.362,0,.181Z" transform="translate(308.617 225.647)"/>
    <ellipse id="Ellipse_2" data-name="Ellipse 2" cx="0.181" cy="0.181" rx="0.181" ry="0.181" transform="translate(330.613 225.647)"/>
    <ellipse id="Ellipse_3" data-name="Ellipse 3" cx="0.181" cy="0.181" rx="0.181" ry="0.181" transform="translate(352.609 225.647)"/>
    <path id="Path_46" data-name="Path 46" d="M.181,0,.37.181.181.362,0,.181Z" transform="translate(374.596 225.647)"/>
    <path id="Path_47" data-name="Path 47" d="M.125,0,.247.066.125.247,0,.189Z" transform="translate(396.65 225.705)"/>
    <path id="Path_48" data-name="Path 48" d="M.115,0,.239.066.115.247,0,.123Z" transform="translate(418.646 225.705)"/>
    <path id="Path_49" data-name="Path 49" d="M.247,0,.494.247.247.486,0,.247Z" transform="translate(440.51 225.581)"/>
    <path id="Path_50" data-name="Path 50" d="M.239,0,.486.247.239.486,0,.247Z" transform="translate(462.506 225.581)"/>
    <path id="Path_51" data-name="Path 51" d="M.247,0,.494.247.247.486,0,.247Z" transform="translate(484.494 225.581)"/>
    <path id="Path_52" data-name="Path 52" d="M.247,0,.486.247.247.486,0,.247Z" transform="translate(506.489 225.581)"/>
    <path id="Path_53" data-name="Path 53" d="M.247,0,.494.247.247.486,0,.247Z" transform="translate(528.477 225.581)"/>
    <path id="Path_54" data-name="Path 54" d="M.189,0,.371.181.189.362,0,.181Z" transform="translate(550.53 225.647)"/>
    <path id="Path_55" data-name="Path 55" d="M.18,0,.361.181.18.362,0,.181Z" transform="translate(572.528 225.647)"/>
    <path id="Path_56" data-name="Path 56" d="M.189,0,.37.181.189.362,0,.181Z" transform="translate(594.514 225.647)"/>
    <ellipse id="Ellipse_4" data-name="Ellipse 4" cx="0.181" cy="0.181" rx="0.181" ry="0.181" transform="translate(616.51 225.647)"/>
    <path id="Path_57" data-name="Path 57" d="M.124,0,.247.066.124.247,0,.189Z" transform="translate(638.563 225.705)"/>
    <path id="Path_58" data-name="Path 58" d="M.123,0,.247.058.123.247,0,.123Z" transform="translate(0.79 203.709)"/>
    <path id="Path_59" data-name="Path 59" d="M.123,0,.247.123.189.247,0,.123Z" transform="translate(22.786 203.709)"/>
    <path id="Path_60" data-name="Path 60" d="M.239,0,.486.239.239.486,0,.239Z" transform="translate(44.659 203.594)"/>
    <path id="Path_61" data-name="Path 61" d="M.3,0l.3.3-.3.3L0,.3Z" transform="translate(66.59 203.528)"/>
    <path id="Path_62" data-name="Path 62" d="M.362,0l.37.362-.37.37L0,.362Z" transform="translate(88.519 203.47)"/>
    <path id="Path_63" data-name="Path 63" d="M.487,0,.971.486.487.971,0,.486Z" transform="translate(110.391 203.347)"/>
    <path id="Path_64" data-name="Path 64" d="M.486,0,.98.486.486.971,0,.486Z" transform="translate(132.379 203.347)"/>
    <path id="Path_65" data-name="Path 65" d="M.552,0,1.1.543l-.553.552L0,.543Z" transform="translate(154.309 203.289)"/>
    <path id="Path_66" data-name="Path 66" d="M.552,0l.543.543-.543.552L0,.543Z" transform="translate(176.304 203.289)"/>
    <path id="Path_67" data-name="Path 67" d="M.551,0,1.1.543l-.552.552L0,.543Z" transform="translate(198.292 203.289)"/>
    <path id="Path_68" data-name="Path 68" d="M.494,0,.98.486.494.971,0,.486Z" transform="translate(220.346 203.347)"/>
    <path id="Path_69" data-name="Path 69" d="M.484,0,.97.486.484.971,0,.486Z" transform="translate(242.343 203.347)"/>
    <path id="Path_70" data-name="Path 70" d="M.494,0,.981.486.494.971,0,.486Z" transform="translate(264.329 203.347)"/>
    <path id="Path_71" data-name="Path 71" d="M.427,0,.855.42.427.856,0,.42Z" transform="translate(286.384 203.412)"/>
    <path id="Path_72" data-name="Path 72" d="M.428,0,.856.42.428.856,0,.42Z" transform="translate(308.378 203.412)"/>
    <path id="Path_73" data-name="Path 73" d="M.362,0,.734.362.362.733,0,.362Z" transform="translate(330.432 203.47)"/>
    <path id="Path_74" data-name="Path 74" d="M.3,0l.3.3-.3.3L0,.3Z" transform="translate(352.487 203.528)"/>
    <ellipse id="Ellipse_5" data-name="Ellipse 5" cx="0.305" cy="0.305" rx="0.305" ry="0.305" transform="translate(374.473 203.528)"/>
    <path id="Path_75" data-name="Path 75" d="M.306,0l.3.3-.3.3L0,.3Z" transform="translate(396.469 203.528)"/>
    <ellipse id="Ellipse_6" data-name="Ellipse 6" cx="0.305" cy="0.305" rx="0.305" ry="0.305" transform="translate(418.457 203.528)"/>
    <path id="Path_76" data-name="Path 76" d="M.3,0,.61.3.3.609,0,.3Z" transform="translate(440.452 203.528)"/>
    <path id="Path_77" data-name="Path 77" d="M.3,0,.617.3.3.609,0,.3Z" transform="translate(462.44 203.528)"/>
    <ellipse id="Ellipse_7" data-name="Ellipse 7" cx="0.305" cy="0.305" rx="0.305" ry="0.305" transform="translate(484.436 203.528)"/>
    <ellipse id="Ellipse_8" data-name="Ellipse 8" cx="0.305" cy="0.305" rx="0.305" ry="0.305" transform="translate(506.432 203.528)"/>
    <ellipse id="Ellipse_9" data-name="Ellipse 9" cx="0.305" cy="0.305" rx="0.305" ry="0.305" transform="translate(528.419 203.528)"/>
    <ellipse id="Ellipse_10" data-name="Ellipse 10" cx="0.305" cy="0.305" rx="0.305" ry="0.305" transform="translate(550.415 203.528)"/>
    <path id="Path_78" data-name="Path 78" d="M.239,0,.486.239.239.486,0,.239Z" transform="translate(572.469 203.594)"/>
    <path id="Path_79" data-name="Path 79" d="M.247,0,.486.239.247.486,0,.239Z" transform="translate(594.456 203.594)"/>
    <ellipse id="Ellipse_11" data-name="Ellipse 11" cx="0.181" cy="0.181" rx="0.181" ry="0.181" transform="translate(616.51 203.651)"/>
    <ellipse id="Ellipse_12" data-name="Ellipse 12" cx="0.181" cy="0.181" rx="0.181" ry="0.181" transform="translate(638.506 203.651)"/>
    <path id="Path_80" data-name="Path 80" d="M.18,0,.361.189.18.37,0,.189Z" transform="translate(0.734 181.655)"/>
    <path id="Path_81" data-name="Path 81" d="M.247,0,.486.247.247.494,0,.247Z" transform="translate(22.663 181.598)"/>
    <path id="Path_82" data-name="Path 82" d="M.362,0,.734.37.362.733,0,.37Z" transform="translate(44.535 181.474)"/>
    <path id="Path_83" data-name="Path 83" d="M.55,0l.543.552L.55,1.095,0,.552Z" transform="translate(66.343 181.293)"/>
    <ellipse id="Ellipse_13" data-name="Ellipse 13" cx="0.733" cy="0.733" rx="0.733" ry="0.733" transform="translate(88.148 181.112)"/>
    <path id="Path_84" data-name="Path 84" d="M.823,0a.846.846,0,0,1,.905.823.846.846,0,0,1-.905.823A.778.778,0,0,1,0,.823.778.778,0,0,1,.823,0Z" transform="translate(110.037 181.021)"/>
    <path id="Path_85" data-name="Path 85" d="M.905,0a.914.914,0,0,1,.905.905.914.914,0,0,1-.905.906A.914.914,0,0,1,0,.905.913.913,0,0,1,.905,0Z" transform="translate(131.934 180.939)"/>
    <path id="Path_86" data-name="Path 86" d="M.906,0a.951.951,0,0,1,.988.988.951.951,0,0,1-.988.988A.934.934,0,0,1,0,.988.934.934,0,0,1,.906,0Z" transform="translate(153.913 180.857)"/>
    <path id="Path_87" data-name="Path 87" d="M.988,0a.934.934,0,0,1,.905.988.934.934,0,0,1-.905.988A.951.951,0,0,1,0,.988.951.951,0,0,1,.988,0Z" transform="translate(175.893 180.857)"/>
    <path id="Path_88" data-name="Path 88" d="M.988,0a1,1,0,0,1,.988.988,1,1,0,0,1-.988.988A.951.951,0,0,1,0,.988.951.951,0,0,1,.988,0Z" transform="translate(197.872 180.857)"/>
    <path id="Path_89" data-name="Path 89" d="M.905,0a.914.914,0,0,1,.905.905.914.914,0,0,1-.905.906A.914.914,0,0,1,0,.905.914.914,0,0,1,.905,0Z" transform="translate(219.934 180.939)"/>
    <path id="Path_90" data-name="Path 90" d="M.823,0a.778.778,0,0,1,.823.823.778.778,0,0,1-.823.823A.778.778,0,0,1,0,.823.778.778,0,0,1,.823,0Z" transform="translate(241.996 181.021)"/>
    <path id="Path_91" data-name="Path 91" d="M.823,0a.846.846,0,0,1,.905.823.846.846,0,0,1-.905.823A.778.778,0,0,1,0,.823.778.778,0,0,1,.823,0Z" transform="translate(263.975 181.021)"/>
    <path id="Path_92" data-name="Path 92" d="M.741,0a.823.823,0,1,1,0,1.646A.812.812,0,0,1,0,.823.812.812,0,0,1,.741,0Z" transform="translate(286.037 181.021)"/>
    <ellipse id="Ellipse_14" data-name="Ellipse 14" cx="0.733" cy="0.733" rx="0.733" ry="0.733" transform="translate(308.074 181.112)"/>
    <path id="Path_93" data-name="Path 93" d="M.659,0a.649.649,0,0,1,.659.659.708.708,0,0,1-.659.659A.649.649,0,0,1,0,.659.606.606,0,0,1,.659,0Z" transform="translate(330.16 181.186)"/>
    <path id="Path_94" data-name="Path 94" d="M.658,0a.563.563,0,0,1,.576.576.636.636,0,0,1-.576.659A.708.708,0,0,1,0,.576.636.636,0,0,1,.658,0Z" transform="translate(352.14 181.268)"/>
    <path id="Path_95" data-name="Path 95" d="M.544,0l.551.552-.551.543L0,.552Z" transform="translate(374.234 181.293)"/>
    <path id="Path_96" data-name="Path 96" d="M.487,0,.971.494.487.98,0,.494Z" transform="translate(396.288 181.351)"/>
    <path id="Path_97" data-name="Path 97" d="M.419,0,.847.42.419.856,0,.42Z" transform="translate(418.343 181.425)"/>
    <path id="Path_98" data-name="Path 98" d="M.428,0,.856.42.428.856,0,.42Z" transform="translate(440.329 181.425)"/>
    <path id="Path_99" data-name="Path 99" d="M.42,0,.848.42.42.856,0,.42Z" transform="translate(462.325 181.425)"/>
    <path id="Path_100" data-name="Path 100" d="M.428,0,.856.42.428.856,0,.42Z" transform="translate(484.312 181.425)"/>
    <path id="Path_101" data-name="Path 101" d="M.37,0,.733.37.37.733,0,.37Z" transform="translate(506.366 181.474)"/>
    <path id="Path_102" data-name="Path 102" d="M.362,0l.37.37L.362.733,0,.37Z" transform="translate(528.362 181.474)"/>
    <path id="Path_103" data-name="Path 103" d="M.37,0,.733.37.37.733,0,.37Z" transform="translate(550.349 181.474)"/>
    <ellipse id="Ellipse_15" data-name="Ellipse 15" cx="0.305" cy="0.305" rx="0.305" ry="0.305" transform="translate(572.403 181.54)"/>
    <ellipse id="Ellipse_16" data-name="Ellipse 16" cx="0.305" cy="0.305" rx="0.305" ry="0.305" transform="translate(594.399 181.54)"/>
    <ellipse id="Ellipse_17" data-name="Ellipse 17" cx="0.305" cy="0.305" rx="0.305" ry="0.305" transform="translate(616.386 181.54)"/>
    <path id="Path_104" data-name="Path 104" d="M.247,0,.486.247.247.494,0,.247Z" transform="translate(638.44 181.598)"/>
    <path id="Path_105" data-name="Path 105" d="M.18,0,.361.181.18.362,0,.181Z" transform="translate(0.734 159.668)"/>
    <path id="Path_106" data-name="Path 106" d="M.37,0,.733.362.37.733,0,.362Z" transform="translate(22.539 159.487)"/>
    <path id="Path_107" data-name="Path 107" d="M.659,0a.649.649,0,0,1,.659.659.708.708,0,0,1-.659.659A.649.649,0,0,1,0,.659.606.606,0,0,1,.659,0Z" transform="translate(44.263 159.207)"/>
    <ellipse id="Ellipse_18" data-name="Ellipse 18" cx="0.856" cy="0.856" rx="0.856" ry="0.856" transform="translate(66.037 158.993)"/>
    <path id="Path_108" data-name="Path 108" d="M1.07,0A1.109,1.109,0,0,1,2.14,1.152a1.09,1.09,0,0,1-1.07,1.07A1.09,1.09,0,0,1,0,1.152,1.109,1.109,0,0,1,1.07,0Z" transform="translate(87.811 158.713)"/>
    <path id="Path_109" data-name="Path 109" d="M1.235,0A1.3,1.3,0,0,1,2.552,1.317,1.354,1.354,0,0,1,1.235,2.634,1.342,1.342,0,0,1,0,1.317,1.285,1.285,0,0,1,1.235,0Z" transform="translate(109.625 158.548)"/>
    <path id="Path_110" data-name="Path 110" d="M1.4,0A1.34,1.34,0,0,1,2.8,1.4,1.387,1.387,0,0,1,1.4,2.8,1.443,1.443,0,0,1,0,1.4,1.388,1.388,0,0,1,1.4,0Z" transform="translate(131.44 158.466)"/>
    <ellipse id="Ellipse_19" data-name="Ellipse 19" cx="1.465" cy="1.465" rx="1.465" ry="1.465" transform="translate(153.395 158.384)"/>
    <path id="Path_111" data-name="Path 111" d="M1.4,0A1.387,1.387,0,0,1,2.8,1.4,1.443,1.443,0,0,1,1.4,2.8,1.387,1.387,0,0,1,0,1.4,1.34,1.34,0,0,1,1.4,0Z" transform="translate(175.481 158.466)"/>
    <path id="Path_112" data-name="Path 112" d="M1.4,0A1.388,1.388,0,0,1,2.8,1.4,1.443,1.443,0,0,1,1.4,2.8,1.387,1.387,0,0,1,0,1.4,1.34,1.34,0,0,1,1.4,0Z" transform="translate(197.461 158.466)"/>
    <path id="Path_113" data-name="Path 113" d="M1.317,0A1.285,1.285,0,0,1,2.552,1.317,1.342,1.342,0,0,1,1.317,2.634,1.354,1.354,0,0,1,0,1.317,1.3,1.3,0,0,1,1.317,0Z" transform="translate(219.522 158.548)"/>
    <ellipse id="Ellipse_20" data-name="Ellipse 20" cx="1.218" cy="1.218" rx="1.218" ry="1.218" transform="translate(241.609 158.63)"/>
    <path id="Path_114" data-name="Path 114" d="M1.152,0A1.125,1.125,0,0,1,2.3,1.152,1.125,1.125,0,0,1,1.152,2.3,1.125,1.125,0,0,1,0,1.152,1.125,1.125,0,0,1,1.152,0Z" transform="translate(263.646 158.713)"/>
    <path id="Path_115" data-name="Path 115" d="M1.07,0A1.125,1.125,0,0,1,2.223,1.152,1.109,1.109,0,0,1,1.07,2.223,1.09,1.09,0,0,1,0,1.152,1.109,1.109,0,0,1,1.07,0Z" transform="translate(285.708 158.713)"/>
    <path id="Path_116" data-name="Path 116" d="M1.07,0a1.078,1.078,0,0,1,.988,1.07,1,1,0,0,1-.988.988A1.021,1.021,0,0,1,0,1.07,1.09,1.09,0,0,1,1.07,0Z" transform="translate(307.769 158.795)"/>
    <path id="Path_117" data-name="Path 117" d="M.988,0a1,1,0,0,1,.988.988,1.062,1.062,0,0,1-.988.988A1,1,0,0,1,0,.988.951.951,0,0,1,.988,0Z" transform="translate(329.831 158.877)"/>
    <path id="Path_118" data-name="Path 118" d="M.905,0a.913.913,0,0,1,.905.905.913.913,0,0,1-.905.905A.914.914,0,0,1,0,.905.913.913,0,0,1,.905,0Z" transform="translate(351.893 158.96)"/>
    <path id="Path_119" data-name="Path 119" d="M.823,0a.846.846,0,0,1,.823.905A.823.823,0,0,1,0,.905.846.846,0,0,1,.823,0Z" transform="translate(373.954 158.96)"/>
    <path id="Path_120" data-name="Path 120" d="M.741,0a.825.825,0,0,1,.823.823.812.812,0,0,1-.823.741A.738.738,0,0,1,0,.823.76.76,0,0,1,.741,0Z" transform="translate(396.016 159.042)"/>
    <path id="Path_121" data-name="Path 121" d="M.741,0A.741.741,0,1,1,0,.741.738.738,0,0,1,.741,0Z" transform="translate(417.996 159.124)"/>
    <path id="Path_122" data-name="Path 122" d="M.659,0a.741.741,0,0,1,0,1.482A.726.726,0,0,1,0,.741.726.726,0,0,1,.659,0Z" transform="translate(440.057 159.124)"/>
    <path id="Path_123" data-name="Path 123" d="M.741,0A.649.649,0,0,1,1.4.659a.708.708,0,0,1-.659.659A.726.726,0,0,1,0,.659.672.672,0,0,1,.741,0Z" transform="translate(462.037 159.207)"/>
    <path id="Path_124" data-name="Path 124" d="M.659,0a.649.649,0,0,1,.658.659.708.708,0,0,1-.658.659A.649.649,0,0,1,0,.659.606.606,0,0,1,.659,0Z" transform="translate(484.098 159.207)"/>
    <path id="Path_125" data-name="Path 125" d="M.659,0a.636.636,0,0,1,.576.659.563.563,0,0,1-.576.576A.636.636,0,0,1,0,.659.708.708,0,0,1,.659,0Z" transform="translate(506.078 159.207)"/>
    <ellipse id="Ellipse_21" data-name="Ellipse 21" cx="0.609" cy="0.609" rx="0.609" ry="0.609" transform="translate(528.115 159.24)"/>
    <path id="Path_126" data-name="Path 126" d="M.551,0l.543.552L.551,1.1,0,.552Z" transform="translate(550.168 159.297)"/>
    <ellipse id="Ellipse_22" data-name="Ellipse 22" cx="0.486" cy="0.486" rx="0.486" ry="0.486" transform="translate(572.222 159.363)"/>
    <path id="Path_127" data-name="Path 127" d="M.494,0,.98.486.494.971,0,.486Z" transform="translate(594.21 159.363)"/>
    <ellipse id="Ellipse_23" data-name="Ellipse 23" cx="0.428" cy="0.428" rx="0.428" ry="0.428" transform="translate(616.263 159.421)"/>
    <path id="Path_128" data-name="Path 128" d="M.371,0,.733.362.371.733,0,.362Z" transform="translate(638.316 159.487)"/>
    <path id="Path_129" data-name="Path 129" d="M.239,0,.486.247.239.486,0,.247Z" transform="translate(0.675 137.614)"/>
    <path id="Path_130" data-name="Path 130" d="M.658,0a.636.636,0,0,1,.576.659.563.563,0,0,1-.576.576A.587.587,0,0,1,0,.659.649.649,0,0,1,.658,0Z" transform="translate(22.284 137.227)"/>
    <path id="Path_131" data-name="Path 131" d="M.906,0a.864.864,0,0,1,.905.906.914.914,0,0,1-.905.905A.914.914,0,0,1,0,.906.864.864,0,0,1,.906,0Z" transform="translate(44.016 136.98)"/>
    <ellipse id="Ellipse_24" data-name="Ellipse 24" cx="1.218" cy="1.218" rx="1.218" ry="1.218" transform="translate(65.675 136.643)"/>
    <path id="Path_132" data-name="Path 132" d="M1.564,0A1.583,1.583,0,0,1,3.128,1.646,1.564,1.564,0,0,1,0,1.646,1.583,1.583,0,0,1,1.564,0Z" transform="translate(87.317 136.24)"/>
    <path id="Path_133" data-name="Path 133" d="M1.811,0A1.846,1.846,0,0,1,3.622,1.893,1.827,1.827,0,0,1,1.811,3.7,1.827,1.827,0,0,1,0,1.893,1.846,1.846,0,0,1,1.811,0Z" transform="translate(109.049 135.993)"/>
    <path id="Path_134" data-name="Path 134" d="M1.976,0A2.038,2.038,0,0,1,4.034,2.058,2.017,2.017,0,1,1,1.976,0Z" transform="translate(130.864 135.828)"/>
    <path id="Path_135" data-name="Path 135" d="M2.058,0A2.076,2.076,0,0,1,4.2,2.14a2.125,2.125,0,0,1-2.14,2.14A2.109,2.109,0,0,1,0,2.14,2.058,2.058,0,0,1,2.058,0Z" transform="translate(152.761 135.746)"/>
    <path id="Path_136" data-name="Path 136" d="M2.14,0A2.109,2.109,0,0,1,4.2,2.14,2.038,2.038,0,0,1,2.14,4.2,2.109,2.109,0,0,1,0,2.14,2.179,2.179,0,0,1,2.14,0Z" transform="translate(174.74 135.746)"/>
    <path id="Path_137" data-name="Path 137" d="M2.058,0A2.017,2.017,0,1,1,0,2.058,2.038,2.038,0,0,1,2.058,0Z" transform="translate(196.802 135.828)"/>
    <ellipse id="Ellipse_25" data-name="Ellipse 25" cx="1.951" cy="1.951" rx="1.951" ry="1.951" transform="translate(218.888 135.91)"/>
    <path id="Path_138" data-name="Path 138" d="M1.811,0A1.846,1.846,0,0,1,3.622,1.893,1.827,1.827,0,0,1,1.811,3.7,1.827,1.827,0,0,1,0,1.893,1.846,1.846,0,0,1,1.811,0Z" transform="translate(241.008 135.993)"/>
    <path id="Path_139" data-name="Path 139" d="M1.729,0A1.688,1.688,0,0,1,3.457,1.729,1.671,1.671,0,0,1,1.729,3.375,1.724,1.724,0,0,1,0,1.729,1.739,1.739,0,0,1,1.729,0Z" transform="translate(263.07 136.157)"/>
    <path id="Path_140" data-name="Path 140" d="M1.564,0A1.651,1.651,0,0,1,3.21,1.646,1.636,1.636,0,0,1,1.564,3.21,1.619,1.619,0,0,1,0,1.646,1.636,1.636,0,0,1,1.564,0Z" transform="translate(285.214 136.24)"/>
    <path id="Path_141" data-name="Path 141" d="M1.482,0a1.46,1.46,0,0,1,1.4,1.482,1.387,1.387,0,0,1-1.4,1.4A1.408,1.408,0,0,1,0,1.482,1.476,1.476,0,0,1,1.482,0Z" transform="translate(307.358 136.404)"/>
    <path id="Path_142" data-name="Path 142" d="M1.4,0A1.372,1.372,0,0,1,2.717,1.4,1.3,1.3,0,0,1,1.4,2.717,1.372,1.372,0,0,1,0,1.4,1.443,1.443,0,0,1,1.4,0Z" transform="translate(329.419 136.486)"/>
    <path id="Path_143" data-name="Path 143" d="M1.317,0A1.285,1.285,0,0,1,2.552,1.317,1.266,1.266,0,0,1,1.317,2.552,1.285,1.285,0,0,1,0,1.317,1.3,1.3,0,0,1,1.317,0Z" transform="translate(351.481 136.569)"/>
    <path id="Path_144" data-name="Path 144" d="M1.235,0A1.266,1.266,0,0,1,2.469,1.235,1.266,1.266,0,0,1,1.235,2.47,1.266,1.266,0,0,1,0,1.235,1.266,1.266,0,0,1,1.235,0Z" transform="translate(373.543 136.651)"/>
    <path id="Path_145" data-name="Path 145" d="M1.152,0A1.125,1.125,0,0,1,2.3,1.152,1.177,1.177,0,0,1,1.152,2.3,1.177,1.177,0,0,1,0,1.152,1.125,1.125,0,0,1,1.152,0Z" transform="translate(395.605 136.733)"/>
    <ellipse id="Ellipse_26" data-name="Ellipse 26" cx="1.037" cy="1.037" rx="1.037" ry="1.037" transform="translate(417.724 136.824)"/>
    <path id="Path_146" data-name="Path 146" d="M.906,0a.951.951,0,0,1,.988.988.934.934,0,0,1-.988.905A.914.914,0,0,1,0,.988.934.934,0,0,1,.906,0Z" transform="translate(439.81 136.898)"/>
    <path id="Path_147" data-name="Path 147" d="M.988,0a.934.934,0,0,1,.905.988.914.914,0,0,1-.905.905A.934.934,0,0,1,0,.988.951.951,0,0,1,.988,0Z" transform="translate(461.79 136.898)"/>
    <path id="Path_148" data-name="Path 148" d="M.906,0a.864.864,0,0,1,.905.906.914.914,0,0,1-.905.905A.914.914,0,0,1,0,.906.864.864,0,0,1,.906,0Z" transform="translate(483.851 136.98)"/>
    <path id="Path_149" data-name="Path 149" d="M.823,0a.846.846,0,0,1,.823.906A.823.823,0,1,1,0,.906.846.846,0,0,1,.823,0Z" transform="translate(505.913 136.98)"/>
    <path id="Path_150" data-name="Path 150" d="M.823,0a.825.825,0,0,1,.823.823.812.812,0,0,1-.823.741A.812.812,0,0,1,0,.823.825.825,0,0,1,.823,0Z" transform="translate(527.893 137.063)"/>
    <path id="Path_151" data-name="Path 151" d="M.741,0a.778.778,0,0,1,.823.823.76.76,0,0,1-.823.741A.738.738,0,0,1,0,.823.76.76,0,0,1,.741,0Z" transform="translate(549.954 137.063)"/>
    <path id="Path_152" data-name="Path 152" d="M.741,0a.738.738,0,0,1,.741.741A.672.672,0,0,1,.741,1.4.672.672,0,0,1,0,.741.738.738,0,0,1,.741,0Z" transform="translate(571.934 137.145)"/>
    <path id="Path_153" data-name="Path 153" d="M.741,0A.649.649,0,0,1,1.4.659a.708.708,0,0,1-.659.659A.726.726,0,0,1,0,.659.672.672,0,0,1,.741,0Z" transform="translate(593.995 137.227)"/>
    <path id="Path_154" data-name="Path 154" d="M.659,0a.649.649,0,0,1,.659.659.708.708,0,0,1-.659.659A.649.649,0,0,1,0,.659.606.606,0,0,1,.659,0Z" transform="translate(616.057 137.227)"/>
    <ellipse id="Ellipse_27" data-name="Ellipse 27" cx="0.609" cy="0.609" rx="0.609" ry="0.609" transform="translate(638.078 137.252)"/>
    <path id="Path_155" data-name="Path 155" d="M.362,0l.37.37-.37.37L0,.37Z" transform="translate(0.552 115.503)"/>
    <path id="Path_156" data-name="Path 156" d="M.823,0a.76.76,0,0,1,.741.823.738.738,0,0,1-.741.741A.76.76,0,0,1,0,.823.778.778,0,0,1,.823,0Z" transform="translate(22.119 115.083)"/>
    <path id="Path_157" data-name="Path 157" d="M1.235,0A1.148,1.148,0,0,1,2.387,1.235,1.125,1.125,0,0,1,1.235,2.387,1.148,1.148,0,0,1,0,1.235,1.167,1.167,0,0,1,1.235,0Z" transform="translate(43.687 114.672)"/>
    <path id="Path_158" data-name="Path 158" d="M1.646,0A1.724,1.724,0,0,1,3.293,1.729,1.583,1.583,0,0,1,1.646,3.293,1.583,1.583,0,0,1,0,1.729,1.724,1.724,0,0,1,1.646,0Z" transform="translate(65.255 114.178)"/>
    <path id="Path_159" data-name="Path 159" d="M2.14,0a2.125,2.125,0,0,1,2.14,2.14A2.109,2.109,0,0,1,2.14,4.2,2.109,2.109,0,0,1,0,2.14,2.125,2.125,0,0,1,2.14,0Z" transform="translate(86.74 113.766)"/>
    <path id="Path_160" data-name="Path 160" d="M2.387,0a2.425,2.425,0,0,1,2.47,2.47,2.408,2.408,0,0,1-2.47,2.387A2.389,2.389,0,0,1,0,2.47,2.408,2.408,0,0,1,2.387,0Z" transform="translate(108.473 113.437)"/>
    <path id="Path_161" data-name="Path 161" d="M2.634,0A2.741,2.741,0,0,1,5.351,2.717,2.671,2.671,0,0,1,2.634,5.351,2.6,2.6,0,0,1,0,2.717,2.671,2.671,0,0,1,2.634,0Z" transform="translate(130.205 113.19)"/>
    <path id="Path_162" data-name="Path 162" d="M2.717,0a2.758,2.758,0,1,1,0,5.515A2.758,2.758,0,0,1,2.717,0Z" transform="translate(152.103 113.108)"/>
    <path id="Path_163" data-name="Path 163" d="M2.717,0A2.671,2.671,0,0,1,5.351,2.717,2.6,2.6,0,0,1,2.717,5.351,2.671,2.671,0,0,1,0,2.717,2.741,2.741,0,0,1,2.717,0Z" transform="translate(174.164 113.19)"/>
    <path id="Path_164" data-name="Path 164" d="M2.634,0A2.653,2.653,0,0,1,5.269,2.634,2.637,2.637,0,0,1,2.634,5.186,2.593,2.593,0,1,1,2.634,0Z" transform="translate(196.226 113.272)"/>
    <path id="Path_165" data-name="Path 165" d="M2.47,0a2.5,2.5,0,0,1,2.47,2.552A2.47,2.47,0,1,1,0,2.552,2.5,2.5,0,0,1,2.47,0Z" transform="translate(218.37 113.355)"/>
    <path id="Path_166" data-name="Path 166" d="M2.3,0a2.32,2.32,0,0,1,2.3,2.387,2.3,2.3,0,0,1-2.3,2.3A2.356,2.356,0,0,1,0,2.387,2.373,2.373,0,0,1,2.3,0Z" transform="translate(240.514 113.519)"/>
    <path id="Path_167" data-name="Path 167" d="M2.14,0A2.214,2.214,0,0,1,4.363,2.223,2.2,2.2,0,0,1,2.14,4.363,2.125,2.125,0,0,1,0,2.223,2.145,2.145,0,0,1,2.14,0Z" transform="translate(262.658 113.684)"/>
    <path id="Path_168" data-name="Path 168" d="M2.058,0A2.18,2.18,0,0,1,4.2,2.14,2.165,2.165,0,0,1,2.058,4.2a2.1,2.1,0,0,1,0-4.2Z" transform="translate(284.72 113.766)"/>
    <path id="Path_169" data-name="Path 169" d="M1.893,0A1.921,1.921,0,0,1,3.7,1.976,1.9,1.9,0,0,1,1.893,3.869,1.915,1.915,0,0,1,0,1.976,1.933,1.933,0,0,1,1.893,0Z" transform="translate(306.946 113.931)"/>
    <path id="Path_170" data-name="Path 170" d="M1.811,0A1.758,1.758,0,0,1,3.54,1.811,1.739,1.739,0,0,1,1.811,3.54,1.813,1.813,0,0,1,0,1.811,1.827,1.827,0,0,1,1.811,0Z" transform="translate(329.008 114.095)"/>
    <path id="Path_171" data-name="Path 171" d="M1.729,0A1.739,1.739,0,0,1,3.457,1.729,1.724,1.724,0,0,1,1.729,3.375,1.671,1.671,0,0,1,0,1.729,1.688,1.688,0,0,1,1.729,0Z" transform="translate(351.07 114.178)"/>
    <path id="Path_172" data-name="Path 172" d="M1.564,0A1.583,1.583,0,0,1,3.128,1.646,1.564,1.564,0,0,1,0,1.646,1.583,1.583,0,0,1,1.564,0Z" transform="translate(373.214 114.26)"/>
    <path id="Path_173" data-name="Path 173" d="M1.482,0A1.476,1.476,0,0,1,2.963,1.482a1.46,1.46,0,0,1-1.482,1.4A1.46,1.46,0,0,1,0,1.482,1.476,1.476,0,0,1,1.482,0Z" transform="translate(395.275 114.425)"/>
    <path id="Path_174" data-name="Path 174" d="M1.317,0a1.443,1.443,0,0,1,1.4,1.4,1.372,1.372,0,0,1-1.4,1.317A1.3,1.3,0,0,1,0,1.4,1.372,1.372,0,0,1,1.317,0Z" transform="translate(417.419 114.507)"/>
    <path id="Path_175" data-name="Path 175" d="M1.235,0A1.3,1.3,0,0,1,2.552,1.317,1.285,1.285,0,0,1,1.235,2.552,1.266,1.266,0,0,1,0,1.317,1.285,1.285,0,0,1,1.235,0Z" transform="translate(439.481 114.589)"/>
    <path id="Path_176" data-name="Path 176" d="M1.235,0A1.148,1.148,0,0,1,2.387,1.235,1.125,1.125,0,0,1,1.235,2.387,1.148,1.148,0,0,1,0,1.235,1.167,1.167,0,0,1,1.235,0Z" transform="translate(461.543 114.672)"/>
    <path id="Path_177" data-name="Path 177" d="M1.152,0A1.2,1.2,0,0,1,2.3,1.235,1.177,1.177,0,0,1,1.152,2.387,1.177,1.177,0,0,1,0,1.235,1.2,1.2,0,0,1,1.152,0Z" transform="translate(483.605 114.672)"/>
    <path id="Path_178" data-name="Path 178" d="M1.07,0A1.109,1.109,0,0,1,2.14,1.152a1.09,1.09,0,0,1-1.07,1.07A1.09,1.09,0,0,1,0,1.152,1.109,1.109,0,0,1,1.07,0Z" transform="translate(505.666 114.754)"/>
    <ellipse id="Ellipse_28" data-name="Ellipse 28" cx="1.037" cy="1.037" rx="1.037" ry="1.037" transform="translate(527.687 114.836)"/>
    <path id="Path_179" data-name="Path 179" d="M.988,0a.951.951,0,0,1,.988.988.934.934,0,0,1-.988.906A.988.988,0,0,1,0,.988,1,1,0,0,1,.988,0Z" transform="translate(549.707 114.919)"/>
    <path id="Path_180" data-name="Path 180" d="M.905,0a.951.951,0,0,1,.988.988.934.934,0,0,1-.988.906A.914.914,0,0,1,0,.988.934.934,0,0,1,.905,0Z" transform="translate(571.769 114.919)"/>
    <path id="Path_181" data-name="Path 181" d="M.988,0a.934.934,0,0,1,.906.988.914.914,0,0,1-.906.906A.934.934,0,0,1,0,.988.951.951,0,0,1,.988,0Z" transform="translate(593.749 114.919)"/>
    <path id="Path_182" data-name="Path 182" d="M.905,0a.9.9,0,0,1,.823.906.885.885,0,0,1-.823.823A.9.9,0,0,1,0,.906.914.914,0,0,1,.905,0Z" transform="translate(615.81 115.001)"/>
    <path id="Path_183" data-name="Path 183" d="M.741,0a.738.738,0,0,1,.741.741A.726.726,0,0,1,.741,1.4.726.726,0,0,1,0,.741.738.738,0,0,1,.741,0Z" transform="translate(637.954 115.166)"/>
    <path id="Path_184" data-name="Path 184" d="M.486,0,.971.5.486.988,0,.5Z" transform="translate(0.428 93.384)"/>
    <path id="Path_185" data-name="Path 185" d="M.988,0a.914.914,0,0,1,.905.905.934.934,0,0,1-.905.988A.951.951,0,0,1,0,.905.934.934,0,0,1,.988,0Z" transform="translate(21.955 92.939)"/>
    <path id="Path_186" data-name="Path 186" d="M1.564,0A1.476,1.476,0,0,1,3.046,1.482,1.5,1.5,0,0,1,1.564,3.046,1.514,1.514,0,0,1,0,1.482,1.5,1.5,0,0,1,1.564,0Z" transform="translate(43.358 92.363)"/>
    <path id="Path_187" data-name="Path 187" d="M2.058,0A2.038,2.038,0,0,1,4.116,2.058,2.038,2.038,0,0,1,2.058,4.116,2.038,2.038,0,0,1,0,2.058,2.038,2.038,0,0,1,2.058,0Z" transform="translate(64.843 91.787)"/>
    <path id="Path_188" data-name="Path 188" d="M2.552,0A2.565,2.565,0,0,1,5.1,2.552,2.583,2.583,0,0,1,2.552,5.186,2.583,2.583,0,0,1,0,2.552,2.565,2.565,0,0,1,2.552,0Z" transform="translate(86.329 91.293)"/>
    <path id="Path_189" data-name="Path 189" d="M3.046,0A3.039,3.039,0,0,1,6.092,3.046,2.988,2.988,0,0,1,3.046,6.092,3.039,3.039,0,0,1,0,3.046,3.093,3.093,0,0,1,3.046,0Z" transform="translate(107.814 90.799)"/>
    <path id="Path_190" data-name="Path 190" d="M3.293,0A3.293,3.293,0,1,1,0,3.293,3.3,3.3,0,0,1,3.293,0Z" transform="translate(129.547 90.552)"/>
    <path id="Path_191" data-name="Path 191" d="M3.375,0A3.408,3.408,0,0,1,6.833,3.375,3.478,3.478,0,0,1,3.375,6.833,3.462,3.462,0,0,1,0,3.375,3.39,3.39,0,0,1,3.375,0Z" transform="translate(151.444 90.47)"/>
    <path id="Path_192" data-name="Path 192" d="M3.293,0A3.293,3.293,0,1,1,0,3.293,3.3,3.3,0,0,1,3.293,0Z" transform="translate(173.588 90.552)"/>
    <path id="Path_193" data-name="Path 193" d="M3.293,0A3.269,3.269,0,0,1,6.5,3.21,3.286,3.286,0,0,1,3.293,6.5,3.3,3.3,0,0,1,0,3.21,3.286,3.286,0,0,1,3.293,0Z" transform="translate(195.567 90.634)"/>
    <path id="Path_194" data-name="Path 194" d="M3.046,0A3.093,3.093,0,0,1,6.092,3.046,3.039,3.039,0,0,1,3.046,6.092,2.988,2.988,0,0,1,0,3.046,3.039,3.039,0,0,1,3.046,0Z" transform="translate(217.794 90.799)"/>
    <path id="Path_195" data-name="Path 195" d="M2.881,0A2.917,2.917,0,0,1,5.762,2.881,2.863,2.863,0,0,1,2.881,5.762,2.863,2.863,0,0,1,0,2.881,2.917,2.917,0,0,1,2.881,0Z" transform="translate(239.938 90.964)"/>
    <path id="Path_196" data-name="Path 196" d="M2.634,0A2.671,2.671,0,0,1,5.351,2.634,2.741,2.741,0,0,1,2.634,5.351,2.671,2.671,0,0,1,0,2.634,2.6,2.6,0,0,1,2.634,0Z" transform="translate(262.164 91.211)"/>
    <path id="Path_197" data-name="Path 197" d="M2.47,0A2.549,2.549,0,0,1,5.022,2.47,2.565,2.565,0,0,1,2.47,5.021,2.549,2.549,0,0,1,0,2.47,2.532,2.532,0,0,1,2.47,0Z" transform="translate(284.308 91.375)"/>
    <path id="Path_198" data-name="Path 198" d="M2.387,0a2.356,2.356,0,0,1,2.3,2.3,2.3,2.3,0,0,1-2.3,2.305A2.32,2.32,0,0,1,0,2.3,2.373,2.373,0,0,1,2.387,0Z" transform="translate(306.452 91.54)"/>
    <path id="Path_199" data-name="Path 199" d="M2.223,0a2.182,2.182,0,0,1,0,4.363A2.213,2.213,0,0,1,0,2.14,2.2,2.2,0,0,1,2.223,0Z" transform="translate(328.596 91.704)"/>
    <path id="Path_200" data-name="Path 200" d="M2.058,0A2.038,2.038,0,0,1,4.116,2.058,2.038,2.038,0,0,1,2.058,4.116,2.038,2.038,0,0,1,0,2.058,2.038,2.038,0,0,1,2.058,0Z" transform="translate(350.74 91.787)"/>
    <path id="Path_201" data-name="Path 201" d="M1.976,0A1.933,1.933,0,0,1,3.951,1.893,2,2,0,0,1,1.976,3.869,2,2,0,0,1,0,1.893,1.933,1.933,0,0,1,1.976,0Z" transform="translate(372.802 91.951)"/>
    <path id="Path_202" data-name="Path 202" d="M1.729,0A1.812,1.812,0,0,1,3.54,1.729,1.827,1.827,0,0,1,1.729,3.54,1.758,1.758,0,0,1,0,1.729,1.739,1.739,0,0,1,1.729,0Z" transform="translate(395.028 92.116)"/>
    <path id="Path_203" data-name="Path 203" d="M1.564,0A1.636,1.636,0,0,1,3.21,1.564,1.651,1.651,0,0,1,1.564,3.21,1.636,1.636,0,0,1,0,1.564,1.619,1.619,0,0,1,1.564,0Z" transform="translate(417.172 92.281)"/>
    <path id="Path_204" data-name="Path 204" d="M1.482,0A1.5,1.5,0,0,1,3.046,1.482,1.514,1.514,0,0,1,1.482,3.046,1.5,1.5,0,0,1,0,1.482,1.476,1.476,0,0,1,1.482,0Z" transform="translate(439.234 92.363)"/>
    <path id="Path_205" data-name="Path 205" d="M1.482,0a1.388,1.388,0,0,1,1.4,1.4,1.461,1.461,0,0,1-1.4,1.482A1.476,1.476,0,0,1,0,1.4,1.408,1.408,0,0,1,1.482,0Z" transform="translate(461.296 92.445)"/>
    <path id="Path_206" data-name="Path 206" d="M1.4,0A1.443,1.443,0,0,1,2.8,1.4,1.388,1.388,0,0,1,1.4,2.8,1.34,1.34,0,0,1,0,1.4,1.387,1.387,0,0,1,1.4,0Z" transform="translate(483.358 92.445)"/>
    <path id="Path_207" data-name="Path 207" d="M1.317,0A1.3,1.3,0,0,1,2.634,1.317a1.372,1.372,0,0,1-1.317,1.4A1.372,1.372,0,0,1,0,1.317,1.3,1.3,0,0,1,1.317,0Z" transform="translate(505.419 92.528)"/>
    <path id="Path_208" data-name="Path 208" d="M1.235,0A1.285,1.285,0,0,1,2.552,1.235,1.3,1.3,0,0,1,1.235,2.552,1.234,1.234,0,0,1,0,1.235,1.212,1.212,0,0,1,1.235,0Z" transform="translate(527.481 92.61)"/>
    <path id="Path_209" data-name="Path 209" d="M1.235,0A1.266,1.266,0,0,1,2.47,1.235,1.212,1.212,0,0,1,1.235,2.47,1.212,1.212,0,0,1,0,1.235,1.266,1.266,0,0,1,1.235,0Z" transform="translate(549.461 92.61)"/>
    <path id="Path_210" data-name="Path 210" d="M1.152,0A1.177,1.177,0,0,1,2.3,1.152,1.2,1.2,0,0,1,1.152,2.387,1.254,1.254,0,0,1,0,1.152,1.239,1.239,0,0,1,1.152,0Z" transform="translate(571.522 92.692)"/>
    <path id="Path_211" data-name="Path 211" d="M1.07,0a1,1,0,0,1,.988.988,1.078,1.078,0,0,1-.988,1.07A1.09,1.09,0,0,1,0,.988,1.021,1.021,0,0,1,1.07,0Z" transform="translate(593.666 92.857)"/>
    <path id="Path_212" data-name="Path 212" d="M.988,0a.988.988,0,0,1,.988.905,1,1,0,0,1-.988.988A.951.951,0,0,1,0,.905.934.934,0,0,1,.988,0Z" transform="translate(615.728 92.939)"/>
    <path id="Path_213" data-name="Path 213" d="M.905,0a.913.913,0,0,1,.905.905.864.864,0,0,1-.905.906A.864.864,0,0,1,0,.905.913.913,0,0,1,.905,0Z" transform="translate(637.79 92.939)"/>
    <ellipse id="Ellipse_29" data-name="Ellipse 29" cx="0.609" cy="0.609" rx="0.609" ry="0.609" transform="translate(0.305 71.273)"/>
    <path id="Path_214" data-name="Path 214" d="M1.235,0A1.177,1.177,0,0,1,2.387,1.152,1.177,1.177,0,0,1,1.235,2.3,1.2,1.2,0,0,1,0,1.152,1.2,1.2,0,0,1,1.235,0Z" transform="translate(21.708 70.713)"/>
    <path id="Path_215" data-name="Path 215" d="M1.893,0A1.827,1.827,0,0,1,3.7,1.811,1.853,1.853,0,1,1,1.893,0Z" transform="translate(43.029 70.054)"/>
    <path id="Path_216" data-name="Path 216" d="M2.47,0A2.389,2.389,0,0,1,4.857,2.387,2.408,2.408,0,0,1,2.47,4.857,2.426,2.426,0,0,1,0,2.387,2.408,2.408,0,0,1,2.47,0Z" transform="translate(64.432 69.478)"/>
    <path id="Path_217" data-name="Path 217" d="M3.128,0A3.128,3.128,0,1,1,0,3.128,3.127,3.127,0,0,1,3.128,0Z" transform="translate(85.753 68.737)"/>
    <path id="Path_218" data-name="Path 218" d="M3.622,0A3.663,3.663,0,1,1,0,3.622,3.672,3.672,0,0,1,3.622,0Z" transform="translate(107.238 68.243)"/>
    <path id="Path_219" data-name="Path 219" d="M3.869,0A3.936,3.936,0,0,1,7.82,3.869,4.006,4.006,0,0,1,3.869,7.82,3.936,3.936,0,0,1,0,3.869,3.865,3.865,0,0,1,3.869,0Z" transform="translate(128.971 67.996)"/>
    <ellipse id="Ellipse_30" data-name="Ellipse 30" cx="4.025" cy="4.025" rx="4.025" ry="4.025" transform="translate(150.835 67.856)"/>
    <path id="Path_220" data-name="Path 220" d="M3.951,0A3.865,3.865,0,0,1,7.82,3.869,3.936,3.936,0,0,1,3.951,7.82,3.952,3.952,0,0,1,0,3.869,3.883,3.883,0,0,1,3.951,0Z" transform="translate(172.929 67.996)"/>
    <ellipse id="Ellipse_31" data-name="Ellipse 31" cx="3.778" cy="3.778" rx="3.778" ry="3.778" transform="translate(195.065 68.103)"/>
    <path id="Path_221" data-name="Path 221" d="M3.622,0A3.654,3.654,0,0,1,7.244,3.622,3.654,3.654,0,0,1,3.622,7.244,3.654,3.654,0,0,1,0,3.622,3.654,3.654,0,0,1,3.622,0Z" transform="translate(217.218 68.243)"/>
    <path id="Path_222" data-name="Path 222" d="M3.375,0A3.408,3.408,0,0,1,6.833,3.375,3.478,3.478,0,0,1,3.375,6.833,3.408,3.408,0,0,1,0,3.375,3.338,3.338,0,0,1,3.375,0Z" transform="translate(239.444 68.49)"/>
    <path id="Path_223" data-name="Path 223" d="M3.128,0a3.2,3.2,0,0,1,3.21,3.128,3.214,3.214,0,0,1-3.21,3.211A3.146,3.146,0,0,1,0,3.128,3.127,3.127,0,0,1,3.128,0Z" transform="translate(261.67 68.737)"/>
    <path id="Path_224" data-name="Path 224" d="M2.881,0A2.934,2.934,0,0,1,5.845,2.881,2.951,2.951,0,0,1,2.881,5.845,2.923,2.923,0,0,1,2.881,0Z" transform="translate(283.897 68.984)"/>
    <path id="Path_225" data-name="Path 225" d="M2.8,0A2.741,2.741,0,0,1,5.516,2.717,2.688,2.688,0,0,1,2.8,5.433,2.708,2.708,0,0,1,0,2.717,2.759,2.759,0,0,1,2.8,0Z" transform="translate(306.041 69.149)"/>
    <ellipse id="Ellipse_32" data-name="Ellipse 32" cx="2.56" cy="2.56" rx="2.56" ry="2.56" transform="translate(328.234 69.322)"/>
    <path id="Path_226" data-name="Path 226" d="M2.47,0A2.389,2.389,0,0,1,4.857,2.387,2.408,2.408,0,0,1,2.47,4.857,2.426,2.426,0,0,1,0,2.387,2.408,2.408,0,0,1,2.47,0Z" transform="translate(350.329 69.478)"/>
    <ellipse id="Ellipse_33" data-name="Ellipse 33" cx="2.256" cy="2.256" rx="2.256" ry="2.256" transform="translate(372.522 69.626)"/>
    <path id="Path_227" data-name="Path 227" d="M2.14,0a2.179,2.179,0,0,1,2.14,2.14,2.179,2.179,0,0,1-2.14,2.14A2.179,2.179,0,0,1,0,2.14,2.179,2.179,0,0,1,2.14,0Z" transform="translate(394.617 69.725)"/>
    <path id="Path_228" data-name="Path 228" d="M1.976,0A2.021,2.021,0,0,1,4.034,1.976,2.038,2.038,0,0,1,1.976,4.034,2.017,2.017,0,0,1,1.976,0Z" transform="translate(416.761 69.89)"/>
    <ellipse id="Ellipse_34" data-name="Ellipse 34" cx="1.893" cy="1.893" rx="1.893" ry="1.893" transform="translate(438.864 69.988)"/>
    <path id="Path_229" data-name="Path 229" d="M1.893,0A1.827,1.827,0,0,1,3.7,1.811,1.853,1.853,0,1,1,1.893,0Z" transform="translate(460.884 70.054)"/>
    <ellipse id="Ellipse_35" data-name="Ellipse 35" cx="1.704" cy="1.704" rx="1.704" ry="1.704" transform="translate(483.037 70.178)"/>
    <ellipse id="Ellipse_36" data-name="Ellipse 36" cx="1.646" cy="1.646" rx="1.646" ry="1.646" transform="translate(505.09 70.235)"/>
    <ellipse id="Ellipse_37" data-name="Ellipse 37" cx="1.523" cy="1.523" rx="1.523" ry="1.523" transform="translate(527.201 70.359)"/>
    <path id="Path_230" data-name="Path 230" d="M1.482,0A1.482,1.482,0,1,1,0,1.482,1.476,1.476,0,0,1,1.482,0Z" transform="translate(549.214 70.384)"/>
    <path id="Path_231" data-name="Path 231" d="M1.317,0a1.372,1.372,0,0,1,1.4,1.317,1.443,1.443,0,0,1-1.4,1.4A1.372,1.372,0,0,1,0,1.317,1.3,1.3,0,0,1,1.317,0Z" transform="translate(571.358 70.548)"/>
    <path id="Path_232" data-name="Path 232" d="M1.317,0A1.266,1.266,0,0,1,2.552,1.235,1.285,1.285,0,0,1,1.317,2.552,1.3,1.3,0,0,1,0,1.235,1.285,1.285,0,0,1,1.317,0Z" transform="translate(593.419 70.631)"/>
    <ellipse id="Ellipse_38" data-name="Ellipse 38" cx="1.218" cy="1.218" rx="1.218" ry="1.218" transform="translate(615.473 70.663)"/>
    <path id="Path_233" data-name="Path 233" d="M1.152,0a1.09,1.09,0,0,1,1.07,1.07,1.109,1.109,0,0,1-1.07,1.152A1.125,1.125,0,0,1,0,1.07,1.109,1.109,0,0,1,1.152,0Z" transform="translate(637.543 70.795)"/>
    <path id="Path_234" data-name="Path 234" d="M.659,0A.726.726,0,0,1,1.4.659a.672.672,0,0,1-.741.659A.649.649,0,0,1,0,.659.708.708,0,0,1,.659,0Z" transform="translate(0.222 49.227)"/>
    <ellipse id="Ellipse_39" data-name="Ellipse 39" cx="1.342" cy="1.342" rx="1.342" ry="1.342" transform="translate(21.568 48.544)"/>
    <path id="Path_235" data-name="Path 235" d="M2.14,0a2.179,2.179,0,0,1,2.14,2.14,2.179,2.179,0,0,1-2.14,2.14A2.125,2.125,0,0,1,0,2.14,2.125,2.125,0,0,1,2.14,0Z" transform="translate(42.782 47.746)"/>
    <path id="Path_236" data-name="Path 236" d="M2.881,0A2.917,2.917,0,0,1,5.762,2.881,2.917,2.917,0,0,1,2.881,5.762,2.917,2.917,0,0,1,0,2.881,2.917,2.917,0,0,1,2.881,0Z" transform="translate(64.02 47.005)"/>
    <path id="Path_237" data-name="Path 237" d="M3.622,0A3.654,3.654,0,0,1,7.244,3.622,3.654,3.654,0,0,1,3.622,7.244,3.654,3.654,0,0,1,0,3.622,3.654,3.654,0,0,1,3.622,0Z" transform="translate(85.259 46.264)"/>
    <path id="Path_238" data-name="Path 238" d="M4.2,0A4.2,4.2,0,1,1,0,4.2,4.216,4.216,0,0,1,4.2,0Z" transform="translate(106.662 45.688)"/>
    <path id="Path_239" data-name="Path 239" d="M4.528,0a4.533,4.533,0,0,1,4.61,4.528,4.6,4.6,0,0,1-4.61,4.61A4.586,4.586,0,0,1,0,4.528,4.514,4.514,0,0,1,4.528,0Z" transform="translate(128.312 45.358)"/>
    <path id="Path_240" data-name="Path 240" d="M4.61,0a4.611,4.611,0,1,1,0,9.22A4.61,4.61,0,1,1,4.61,0Z" transform="translate(150.209 45.276)"/>
    <path id="Path_241" data-name="Path 241" d="M4.61,0A4.514,4.514,0,0,1,9.137,4.528,4.585,4.585,0,0,1,4.61,9.138,4.6,4.6,0,0,1,0,4.528,4.533,4.533,0,0,1,4.61,0Z" transform="translate(172.271 45.358)"/>
    <path id="Path_242" data-name="Path 242" d="M4.445,0A4.392,4.392,0,0,1,8.808,4.363,4.339,4.339,0,0,1,4.445,8.726,4.358,4.358,0,0,1,0,4.363,4.41,4.41,0,0,1,4.445,0Z" transform="translate(194.415 45.523)"/>
    <path id="Path_243" data-name="Path 243" d="M4.116,0A4.076,4.076,0,0,1,8.232,4.116,4.076,4.076,0,0,1,4.116,8.232,4.076,4.076,0,0,1,0,4.116,4.076,4.076,0,0,1,4.116,0Z" transform="translate(216.724 45.77)"/>
    <path id="Path_244" data-name="Path 244" d="M3.869,0A3.865,3.865,0,0,1,7.738,3.869,3.936,3.936,0,0,1,3.869,7.82,3.935,3.935,0,0,1,0,3.869,3.864,3.864,0,0,1,3.869,0Z" transform="translate(238.95 46.017)"/>
    <path id="Path_245" data-name="Path 245" d="M3.622,0a3.672,3.672,0,0,1,3.7,3.622,3.62,3.62,0,0,1-3.7,3.622A3.6,3.6,0,0,1,0,3.622,3.654,3.654,0,0,1,3.622,0Z" transform="translate(261.176 46.264)"/>
    <path id="Path_246" data-name="Path 246" d="M3.375,0A3.408,3.408,0,0,1,6.833,3.375,3.408,3.408,0,0,1,3.375,6.75,3.338,3.338,0,0,1,0,3.375,3.338,3.338,0,0,1,3.375,0Z" transform="translate(283.403 46.511)"/>
    <path id="Path_247" data-name="Path 247" d="M3.293,0a3.21,3.21,0,0,1,0,6.421A3.233,3.233,0,0,1,0,3.21,3.233,3.233,0,0,1,3.293,0Z" transform="translate(305.547 46.675)"/>
    <path id="Path_248" data-name="Path 248" d="M3.046,0A3.093,3.093,0,0,1,6.092,3.046,3.039,3.039,0,0,1,3.046,6.092,2.988,2.988,0,0,1,0,3.046,3.039,3.039,0,0,1,3.046,0Z" transform="translate(327.773 46.84)"/>
    <path id="Path_249" data-name="Path 249" d="M2.881,0A2.917,2.917,0,0,1,5.762,2.881,2.917,2.917,0,0,1,2.881,5.762,2.917,2.917,0,0,1,0,2.881,2.917,2.917,0,0,1,2.881,0Z" transform="translate(349.917 47.005)"/>
    <path id="Path_250" data-name="Path 250" d="M2.717,0A2.741,2.741,0,0,1,5.433,2.717,2.741,2.741,0,0,1,2.717,5.433,2.741,2.741,0,0,1,0,2.717,2.741,2.741,0,0,1,2.717,0Z" transform="translate(372.061 47.169)"/>
    <path id="Path_251" data-name="Path 251" d="M2.552,0A2.565,2.565,0,0,1,5.1,2.552,2.565,2.565,0,0,1,2.552,5.1,2.565,2.565,0,0,1,0,2.552,2.565,2.565,0,0,1,2.552,0Z" transform="translate(394.205 47.334)"/>
    <path id="Path_252" data-name="Path 252" d="M2.387,0A2.387,2.387,0,1,1,0,2.387,2.389,2.389,0,0,1,2.387,0Z" transform="translate(416.349 47.499)"/>
    <path id="Path_253" data-name="Path 253" d="M2.223,0a2.224,2.224,0,1,1,0,4.445A2.223,2.223,0,1,1,2.223,0Z" transform="translate(438.493 47.663)"/>
    <path id="Path_254" data-name="Path 254" d="M2.14,0a2.179,2.179,0,0,1,2.14,2.14,2.179,2.179,0,0,1-2.14,2.14A2.125,2.125,0,0,1,0,2.14,2.125,2.125,0,0,1,2.14,0Z" transform="translate(460.637 47.746)"/>
    <path id="Path_255" data-name="Path 255" d="M2.058,0A2.038,2.038,0,0,1,4.116,2.058,2.038,2.038,0,0,1,2.058,4.116,2.038,2.038,0,0,1,0,2.058,2.038,2.038,0,0,1,2.058,0Z" transform="translate(482.699 47.828)"/>
    <path id="Path_256" data-name="Path 256" d="M1.976,0A2,2,0,0,1,3.951,1.976,2,2,0,0,1,1.976,3.951,2,2,0,0,1,0,1.976,2,2,0,0,1,1.976,0Z" transform="translate(504.761 47.91)"/>
    <path id="Path_257" data-name="Path 257" d="M1.893,0A1.863,1.863,0,0,1,3.787,1.893,1.863,1.863,0,0,1,1.893,3.787,1.863,1.863,0,0,1,0,1.893,1.863,1.863,0,0,1,1.893,0Z" transform="translate(526.823 47.993)"/>
    <path id="Path_258" data-name="Path 258" d="M1.729,0A1.758,1.758,0,0,1,3.54,1.729,1.827,1.827,0,0,1,1.729,3.54,1.758,1.758,0,0,1,0,1.729,1.688,1.688,0,0,1,1.729,0Z" transform="translate(548.966 48.157)"/>
    <path id="Path_259" data-name="Path 259" d="M1.646,0A1.646,1.646,0,1,1,0,1.646,1.651,1.651,0,0,1,1.646,0Z" transform="translate(571.028 48.24)"/>
    <path id="Path_260" data-name="Path 260" d="M1.564,0A1.548,1.548,0,0,1,3.046,1.564,1.548,1.548,0,0,1,1.564,3.128,1.564,1.564,0,0,1,1.564,0Z" transform="translate(593.172 48.322)"/>
    <path id="Path_261" data-name="Path 261" d="M1.4,0A1.443,1.443,0,0,1,2.8,1.4,1.443,1.443,0,0,1,1.4,2.8,1.387,1.387,0,0,1,0,1.4,1.388,1.388,0,0,1,1.4,0Z" transform="translate(615.316 48.486)"/>
    <path id="Path_262" data-name="Path 262" d="M1.317,0A1.212,1.212,0,0,1,2.552,1.235,1.285,1.285,0,0,1,1.317,2.552,1.3,1.3,0,0,1,0,1.235,1.234,1.234,0,0,1,1.317,0Z" transform="translate(637.378 48.651)"/>
    <path id="Path_263" data-name="Path 263" d="M.741,0a.825.825,0,0,1,.823.823.76.76,0,0,1-.823.741A.738.738,0,0,1,0,.823.812.812,0,0,1,.741,0Z" transform="translate(0.14 27.083)"/>
    <path id="Path_264" data-name="Path 264" d="M1.646,0a1.564,1.564,0,0,1,0,3.128A1.583,1.583,0,0,1,0,1.564,1.583,1.583,0,0,1,1.646,0Z" transform="translate(21.296 26.342)"/>
    <path id="Path_265" data-name="Path 265" d="M2.47,0A2.408,2.408,0,0,1,4.857,2.47,2.461,2.461,0,0,1,2.47,4.939,2.477,2.477,0,0,1,0,2.47,2.426,2.426,0,0,1,2.47,0Z" transform="translate(42.452 25.437)"/>
    <ellipse id="Ellipse_40" data-name="Ellipse 40" cx="3.293" cy="3.293" rx="3.293" ry="3.293" transform="translate(63.6 24.606)"/>
    <path id="Path_266" data-name="Path 266" d="M4.116,0A4.076,4.076,0,0,1,8.232,4.116,4.076,4.076,0,0,1,4.116,8.232,4.076,4.076,0,0,1,0,4.116,4.076,4.076,0,0,1,4.116,0Z" transform="translate(84.765 23.791)"/>
    <path id="Path_267" data-name="Path 267" d="M4.775,0A4.92,4.92,0,0,1,9.631,4.857,4.849,4.849,0,0,1,4.775,9.631,4.778,4.778,0,0,1,0,4.857,4.849,4.849,0,0,1,4.775,0Z" transform="translate(106.086 23.05)"/>
    <path id="Path_268" data-name="Path 268" d="M5.186,0a5.186,5.186,0,0,1,0,10.372A5.217,5.217,0,0,1,0,5.186,5.217,5.217,0,0,1,5.186,0Z" transform="translate(127.653 22.72)"/>
    <path id="Path_269" data-name="Path 269" d="M5.186,0A5.269,5.269,0,1,1,0,5.268,5.252,5.252,0,0,1,5.186,0Z" transform="translate(149.633 22.638)"/>
    <path id="Path_270" data-name="Path 270" d="M5.186,0a5.217,5.217,0,0,1,5.186,5.186,5.217,5.217,0,0,1-5.186,5.186A5.186,5.186,0,0,1,5.186,0Z" transform="translate(171.695 22.72)"/>
    <path id="Path_271" data-name="Path 271" d="M5.021,0a5.042,5.042,0,0,1,5.022,5.022,5.1,5.1,0,0,1-5.022,5.021A5.042,5.042,0,0,1,0,5.022,4.989,4.989,0,0,1,5.021,0Z" transform="translate(193.839 22.885)"/>
    <path id="Path_272" data-name="Path 272" d="M4.774,0A4.775,4.775,0,1,1,0,4.775,4.778,4.778,0,0,1,4.774,0Z" transform="translate(216.065 23.132)"/>
    <ellipse id="Ellipse_41" data-name="Ellipse 41" cx="4.511" cy="4.511" rx="4.511" ry="4.511" transform="translate(238.316 23.387)"/>
    <path id="Path_273" data-name="Path 273" d="M4.2,0A4.2,4.2,0,1,1,0,4.2,4.216,4.216,0,0,1,4.2,0Z" transform="translate(260.6 23.708)"/>
    <path id="Path_274" data-name="Path 274" d="M3.869,0a3.87,3.87,0,1,1,0,7.738A3.869,3.869,0,1,1,3.869,0Z" transform="translate(282.909 24.037)"/>
    <ellipse id="Ellipse_42" data-name="Ellipse 42" cx="3.721" cy="3.721" rx="3.721" ry="3.721" transform="translate(305.086 24.177)"/>
    <path id="Path_275" data-name="Path 275" d="M3.54,0A3.478,3.478,0,0,1,7,3.457a3.5,3.5,0,0,1-7,0A3.5,3.5,0,0,1,3.54,0Z" transform="translate(327.279 24.449)"/>
    <path id="Path_276" data-name="Path 276" d="M3.375,0A3.39,3.39,0,0,1,6.75,3.375,3.445,3.445,0,0,1,3.375,6.75,3.39,3.39,0,0,1,0,3.375,3.338,3.338,0,0,1,3.375,0Z" transform="translate(349.423 24.531)"/>
    <path id="Path_277" data-name="Path 277" d="M3.21,0a3.269,3.269,0,0,1,3.21,3.21A3.269,3.269,0,0,1,3.21,6.421,3.269,3.269,0,0,1,0,3.21,3.269,3.269,0,0,1,3.21,0Z" transform="translate(371.567 24.696)"/>
    <path id="Path_278" data-name="Path 278" d="M2.881,0A2.951,2.951,0,0,1,5.845,2.963,2.882,2.882,0,0,1,2.881,5.845,2.813,2.813,0,0,1,0,2.963,2.882,2.882,0,0,1,2.881,0Z" transform="translate(393.876 24.943)"/>
    <path id="Path_279" data-name="Path 279" d="M2.717,0a2.707,2.707,0,0,1,2.8,2.717A2.758,2.758,0,0,1,0,2.717,2.688,2.688,0,0,1,2.717,0Z" transform="translate(416.02 25.19)"/>
    <path id="Path_280" data-name="Path 280" d="M2.552,0A2.6,2.6,0,0,1,5.186,2.634,2.652,2.652,0,0,1,2.552,5.268,2.637,2.637,0,0,1,0,2.634,2.583,2.583,0,0,1,2.552,0Z" transform="translate(438.164 25.272)"/>
    <path id="Path_281" data-name="Path 281" d="M2.552,0A2.549,2.549,0,0,1,5.021,2.552a2.477,2.477,0,0,1-2.469,2.47A2.5,2.5,0,0,1,0,2.552,2.565,2.565,0,0,1,2.552,0Z" transform="translate(460.226 25.355)"/>
    <ellipse id="Ellipse_43" data-name="Ellipse 43" cx="2.379" cy="2.379" rx="2.379" ry="2.379" transform="translate(482.362 25.519)"/>
    <path id="Path_282" data-name="Path 282" d="M2.305,0A2.285,2.285,0,0,1,4.528,2.3,2.213,2.213,0,0,1,2.305,4.528,2.285,2.285,0,0,1,0,2.3,2.356,2.356,0,0,1,2.305,0Z" transform="translate(504.431 25.602)"/>
    <path id="Path_283" data-name="Path 283" d="M2.222,0A2.223,2.223,0,1,1,0,2.223,2.213,2.213,0,0,1,2.222,0Z" transform="translate(526.493 25.684)"/>
    <path id="Path_284" data-name="Path 284" d="M2.058,0A2.038,2.038,0,0,1,4.116,2.058,2.038,2.038,0,0,1,2.058,4.116,2.038,2.038,0,0,1,0,2.058,2.038,2.038,0,0,1,2.058,0Z" transform="translate(548.637 25.849)"/>
    <path id="Path_285" data-name="Path 285" d="M1.893,0A1.863,1.863,0,0,1,3.787,1.893,1.863,1.863,0,0,1,1.893,3.787,1.915,1.915,0,0,1,0,1.893,1.915,1.915,0,0,1,1.893,0Z" transform="translate(570.781 26.013)"/>
    <ellipse id="Ellipse_44" data-name="Ellipse 44" cx="1.77" cy="1.77" rx="1.77" ry="1.77" transform="translate(592.933 26.128)"/>
    <ellipse id="Ellipse_45" data-name="Ellipse 45" cx="1.646" cy="1.646" rx="1.646" ry="1.646" transform="translate(615.045 26.252)"/>
    <path id="Path_286" data-name="Path 286" d="M1.482,0A1.482,1.482,0,1,1,0,1.482,1.476,1.476,0,0,1,1.482,0Z" transform="translate(637.213 26.425)"/>
    <ellipse id="Ellipse_46" data-name="Ellipse 46" cx="0.914" cy="0.914" rx="0.914" ry="0.914" transform="translate(0 4.989)"/>
    <path id="Path_287" data-name="Path 287" d="M1.893,0A1.9,1.9,0,0,1,3.7,1.893,1.827,1.827,0,0,1,1.893,3.7,1.846,1.846,0,0,1,0,1.893,1.915,1.915,0,0,1,1.893,0Z" transform="translate(21.049 4.034)"/>
    <path id="Path_288" data-name="Path 288" d="M2.8,0A2.688,2.688,0,0,1,5.515,2.717,2.758,2.758,0,0,1,0,2.717,2.707,2.707,0,0,1,2.8,0Z" transform="translate(42.123 3.211)"/>
    <ellipse id="Ellipse_47" data-name="Ellipse 47" cx="3.721" cy="3.721" rx="3.721" ry="3.721" transform="translate(63.172 2.182)"/>
    <path id="Path_289" data-name="Path 289" d="M4.692,0A4.69,4.69,0,0,1,9.384,4.692,4.744,4.744,0,0,1,4.692,9.384,4.69,4.69,0,0,1,0,4.692,4.638,4.638,0,0,1,4.692,0Z" transform="translate(84.189 1.235)"/>
    <path id="Path_290" data-name="Path 290" d="M5.433,0a5.376,5.376,0,0,1,5.433,5.433A5.433,5.433,0,1,1,5.433,0Z" transform="translate(105.427 0.494)"/>
    <path id="Path_291" data-name="Path 291" d="M5.845,0a5.814,5.814,0,0,1,5.845,5.845A5.845,5.845,0,1,1,5.845,0Z" transform="translate(126.995 0.082)"/>
    <path id="Path_292" data-name="Path 292" d="M5.845,0a5.927,5.927,0,0,1,0,11.854A5.928,5.928,0,0,1,5.845,0Z" transform="translate(148.974 0)"/>
    <path id="Path_293" data-name="Path 293" d="M5.845,0a5.851,5.851,0,0,1,5.762,5.845A5.8,5.8,0,0,1,0,5.845,5.867,5.867,0,0,1,5.845,0Z" transform="translate(171.036 0.082)"/>
    <path id="Path_294" data-name="Path 294" d="M5.6,0A5.6,5.6,0,1,1,0,5.6,5.6,5.6,0,0,1,5.6,0Z" transform="translate(193.262 0.329)"/>
    <path id="Path_295" data-name="Path 295" d="M5.351,0a5.271,5.271,0,0,1,5.269,5.351,5.252,5.252,0,0,1-5.269,5.268A5.31,5.31,0,1,1,5.351,0Z" transform="translate(215.489 0.576)"/>
    <path id="Path_296" data-name="Path 296" d="M5.021,0a5.13,5.13,0,0,1,5.1,5.1,5.059,5.059,0,0,1-5.1,5.022A4.989,4.989,0,0,1,0,5.1,5.059,5.059,0,0,1,5.021,0Z" transform="translate(237.798 0.823)"/>
    <path id="Path_297" data-name="Path 297" d="M4.692,0A4.639,4.639,0,0,1,9.384,4.692,4.69,4.69,0,0,1,4.692,9.384,4.744,4.744,0,0,1,0,4.692,4.69,4.69,0,0,1,4.692,0Z" transform="translate(260.106 1.235)"/>
    <path id="Path_298" data-name="Path 298" d="M4.445,0a4.445,4.445,0,0,1,0,8.891A4.48,4.48,0,0,1,0,4.445,4.48,4.48,0,0,1,4.445,0Z" transform="translate(282.332 1.482)"/>
    <path id="Path_299" data-name="Path 299" d="M4.2,0A4.2,4.2,0,0,1,8.314,4.2,4.157,4.157,0,0,1,0,4.2,4.216,4.216,0,0,1,4.2,0Z" transform="translate(304.641 1.729)"/>
    <path id="Path_300" data-name="Path 300" d="M3.951,0A3.952,3.952,0,0,1,7.9,3.951,4.006,4.006,0,0,1,3.951,7.9,3.952,3.952,0,0,1,0,3.951,3.9,3.9,0,0,1,3.951,0Z" transform="translate(326.867 1.976)"/>
    <path id="Path_301" data-name="Path 301" d="M3.787,0A3.777,3.777,0,0,1,7.573,3.787,3.83,3.83,0,0,1,3.787,7.573,3.777,3.777,0,0,1,0,3.787,3.726,3.726,0,0,1,3.787,0Z" transform="translate(349.012 2.14)"/>
    <path id="Path_302" data-name="Path 302" d="M3.54,0a3.514,3.514,0,0,1,3.54,3.54,3.514,3.514,0,0,1-3.54,3.54A3.513,3.513,0,0,1,0,3.54,3.514,3.514,0,0,1,3.54,0Z" transform="translate(371.238 2.387)"/>
    <path id="Path_303" data-name="Path 303" d="M3.375,0a3.334,3.334,0,1,1,0,6.668A3.374,3.374,0,0,1,0,3.375,3.39,3.39,0,0,1,3.375,0Z" transform="translate(393.382 2.552)"/>
    <path id="Path_304" data-name="Path 304" d="M3.128,0a3.214,3.214,0,0,1,3.21,3.211,3.146,3.146,0,0,1-3.21,3.128A3.127,3.127,0,0,1,0,3.211,3.2,3.2,0,0,1,3.128,0Z" transform="translate(415.608 2.717)"/>
    <path id="Path_305" data-name="Path 305" d="M2.964,0A3.093,3.093,0,0,1,6.009,3.046,3.022,3.022,0,0,1,2.964,6.009,2.951,2.951,0,0,1,0,3.046,3.022,3.022,0,0,1,2.964,0Z" transform="translate(437.752 2.881)"/>
    <path id="Path_306" data-name="Path 306" d="M2.881,0a2.8,2.8,0,0,1,2.8,2.881,2.847,2.847,0,0,1-2.8,2.881A2.863,2.863,0,0,1,0,2.881,2.813,2.813,0,0,1,2.881,0Z" transform="translate(459.897 3.046)"/>
    <path id="Path_307" data-name="Path 307" d="M2.8,0A2.688,2.688,0,0,1,5.515,2.717,2.758,2.758,0,0,1,0,2.717,2.707,2.707,0,0,1,2.8,0Z" transform="translate(481.958 3.211)"/>
    <path id="Path_308" data-name="Path 308" d="M2.552,0A2.565,2.565,0,0,1,5.1,2.552,2.565,2.565,0,0,1,2.552,5.1,2.565,2.565,0,0,1,0,2.552,2.565,2.565,0,0,1,2.552,0Z" transform="translate(504.185 3.375)"/>
    <path id="Path_309" data-name="Path 309" d="M2.469,0a2.477,2.477,0,0,1,2.47,2.47A2.471,2.471,0,0,1,0,2.47,2.477,2.477,0,0,1,2.469,0Z" transform="translate(526.246 3.457)"/>
    <path id="Path_310" data-name="Path 310" d="M2.3,0a2.251,2.251,0,0,1,2.3,2.305,2.3,2.3,0,0,1-2.3,2.3A2.356,2.356,0,0,1,0,2.305,2.3,2.3,0,0,1,2.3,0Z" transform="translate(548.39 3.622)"/>
    <path id="Path_311" data-name="Path 311" d="M2.14,0a2.076,2.076,0,0,1,2.14,2.14,2.125,2.125,0,0,1-2.14,2.14A2.179,2.179,0,0,1,0,2.14,2.125,2.125,0,0,1,2.14,0Z" transform="translate(570.534 3.787)"/>
    <path id="Path_312" data-name="Path 312" d="M2.058,0A2.017,2.017,0,1,1,0,2.058,2.038,2.038,0,0,1,2.058,0Z" transform="translate(592.678 3.869)"/>
    <path id="Path_313" data-name="Path 313" d="M1.893,0A1.9,1.9,0,0,1,3.7,1.893,1.827,1.827,0,0,1,1.893,3.7,1.846,1.846,0,0,1,0,1.893,1.915,1.915,0,0,1,1.893,0Z" transform="translate(614.822 4.034)"/>
    <ellipse id="Ellipse_48" data-name="Ellipse 48" cx="1.646" cy="1.646" rx="1.646" ry="1.646" transform="translate(637.041 4.256)"/>
  </g>
</svg>
