<svg xmlns="http://www.w3.org/2000/svg" width="263.41" height="64.61" viewBox="0 0 263.41 64.61">
  <path id="logo" d="M25.62,31.05,16.59,70.04q-2.03,9.17-4.76,11.515T.42,83.9l1.33-6.86q3.57-.07,4.8-1.225T8.82,69.9l9.03-38.85ZM42.49,43.3q13.09,0,13.09,12.6a32.833,32.833,0,0,1-1.96,11.375A21.067,21.067,0,0,1,47.5,76.2,14.442,14.442,0,0,1,37.8,79.77q-12.95,0-12.95-12.46a31.425,31.425,0,0,1,2.1-11.445,22.3,22.3,0,0,1,6.23-8.995A13.863,13.863,0,0,1,42.49,43.3ZM37.8,73.33q4.55,0,7.385-5.32A25.5,25.5,0,0,0,48.02,55.83a6.606,6.606,0,0,0-1.4-4.48,5.178,5.178,0,0,0-4.13-1.61q-4.48,0-7.28,5.39a26.181,26.181,0,0,0-2.8,12.25Q32.41,73.33,37.8,73.33Zm43.96-30.1q10.01,0,10.01,11.06A36.811,36.811,0,0,1,89.81,66.4a22.494,22.494,0,0,1-6.16,9.485A14.293,14.293,0,0,1,73.71,79.7a61.962,61.962,0,0,1-13.3-1.54l-2.45-.49L69.02,29.44h7.63l-4.2,18.13a16.3,16.3,0,0,1,4.41-2.975A11.5,11.5,0,0,1,81.76,43.23ZM66.71,72.49a35.006,35.006,0,0,0,6.755.77,7.009,7.009,0,0,0,5.04-2.065A13.485,13.485,0,0,0,81.76,66.12,32.8,32.8,0,0,0,84,55.06a7.2,7.2,0,0,0-.91-3.885,3.325,3.325,0,0,0-3.045-1.435,9.326,9.326,0,0,0-4.305,1.12,18.987,18.987,0,0,0-3.5,2.24l-1.33,1.19Zm51.45-29.26q4.9,0,7.315,3.01t2.415,8.645a34.675,34.675,0,0,1-1.925,11.27,23.634,23.634,0,0,1-6.055,9.59,13.442,13.442,0,0,1-9.59,3.955,30.886,30.886,0,0,1-7.49-.98l-1.4-.35L97.79,94.05H90.3L101.85,44h7.42l-.98,4.76q.56-.63,1.47-1.54a19.357,19.357,0,0,1,3.535-2.45A9.737,9.737,0,0,1,118.16,43.23Zm-2.31,6.51a7.427,7.427,0,0,0-3.815,1.61,31.638,31.638,0,0,0-3.955,3.15l-1.54,1.61-3.64,16.1a31.5,31.5,0,0,0,7.35,1.05q3.08,0,5.425-3.185a21.381,21.381,0,0,0,3.43-7.28,30.97,30.97,0,0,0,1.085-7.945Q120.19,49.74,115.85,49.74ZM129.92,79,141.4,29.44h7.56L137.55,79Zm16.1,0,8.05-35h7.56l-8.05,35Zm9.17-40.18,1.89-8.19h7.7l-1.89,8.19Zm26.88,4.41a27.724,27.724,0,0,1,8.26,1.33l1.47.49-1.96,5.6a51.618,51.618,0,0,0-8.05-.84q-4.97,0-7.63,5.075a24.815,24.815,0,0,0-2.66,11.69q0,6.615,6.09,6.615a38.809,38.809,0,0,0,6.37-.56l1.26-.21-.56,5.74a32.2,32.2,0,0,1-9.975,1.61,10.714,10.714,0,0,1-7.98-3.01q-2.975-3.01-2.975-8.47,0-10.78,4.76-17.92A15.363,15.363,0,0,1,182.07,43.23ZM190.4,79l8.05-35h7.56l-8.05,35Zm9.17-40.18,1.89-8.19h7.7l-1.89,8.19Zm17.71,31.92q0,2.59,2.73,2.59l5.04-.42-.63,5.53a21.182,21.182,0,0,1-7.315,1.33,7.751,7.751,0,0,1-5.67-1.96,6.715,6.715,0,0,1-1.995-5,32.264,32.264,0,0,1,1.05-7.385l3.5-14.91h-4.06L211.61,44h3.99l2.17-9.59h7.63L223.16,44h8.4l-1.61,6.51h-8.33l-3.64,15.54A21.432,21.432,0,0,0,217.28,70.74ZM233.94,44h7.49l-.35,28.7h1.54L256.13,44h7.7L239.61,94.05h-7.63L239.54,79h-5.32Z" transform="translate(-0.42 -29.44)" fill="#707070"/>
</svg>
